<svg width="99" height="63" viewBox="0 0 99 63" fill="none" xmlns="http://www.w3.org/2000/svg">
<path d="M28.7969 0C31.6529 0 34.2943 0.224999 36.7078 0.890998C39.1258 1.3365 41.1058 2.2275 42.8623 3.33899C44.6233 4.45499 45.9418 6.01199 46.8178 8.01448C47.6983 10.017 48.1408 12.4695 48.1408 15.138C48.1408 18.2565 47.4793 20.925 45.9418 22.9275C44.6233 24.9344 42.4243 26.7119 39.7873 28.0484C43.5238 29.1644 46.3798 31.1669 48.1408 33.8399C49.8973 36.5084 50.9968 39.8474 50.9968 43.6319C50.9968 46.7504 50.3353 49.4189 49.2358 51.6464C48.1408 53.8739 46.3798 55.8764 44.3998 57.2129C42.249 58.6453 39.8715 59.6984 37.3693 60.3269C34.7323 60.9974 32.0953 61.4429 29.4583 61.4429H0V0H28.7969ZM27.0359 24.93C29.4539 24.93 31.4339 24.264 32.9714 23.1525C34.5089 22.041 35.1703 20.034 35.1703 17.586C35.1703 16.2495 34.9469 14.9175 34.5089 14.0265C34.0709 13.1355 33.4094 12.465 32.5334 11.799C31.6529 11.3535 30.7724 10.908 29.6729 10.6875C28.5734 10.4625 27.4784 10.4625 26.1554 10.4625H13.4084V24.9344H27.0404L27.0359 24.93ZM27.6974 51.2009C29.0159 51.2009 30.3344 50.9759 31.4339 50.7554C32.5334 50.5304 33.6328 50.0894 34.5089 49.4189C35.4045 48.7674 36.1537 47.9333 36.7078 46.9709C37.1459 45.8594 37.5883 44.5229 37.5883 42.9659C37.5883 39.8474 36.7078 37.6199 34.9513 36.0629C33.1904 34.7264 30.7724 34.0604 27.9164 34.0604H13.4084V51.2054L27.6974 51.2009ZM70.1217 50.9759C71.8782 52.7579 74.5152 53.6489 78.0327 53.6489C80.4507 53.6489 82.6496 52.9829 84.4061 51.8714C86.1671 50.5349 87.2666 49.1984 87.7046 47.8664H98.4761C96.7151 53.2034 94.0781 56.9879 90.5651 59.4404C87.0431 61.6634 82.8686 62.9999 77.8137 62.9999C74.5794 63.0099 71.3723 62.4054 68.3607 61.2179C65.6507 60.1947 63.2341 58.5128 61.3257 56.3219C59.2845 54.2725 57.7757 51.7488 56.9322 48.9734C55.8328 46.0799 55.3903 42.9659 55.3903 39.4019C55.3903 36.0629 55.8328 32.9489 56.9322 30.0509C57.9912 27.2626 59.5569 24.6973 61.5492 22.4865C63.5565 20.4113 65.9439 18.7471 68.5797 17.586C71.5148 16.3982 74.6504 15.7931 77.8137 15.804C81.5501 15.804 84.8486 16.4745 87.7046 18.0315C90.5651 19.5885 92.7596 21.3705 94.5161 24.0435C96.2771 26.4914 97.6001 29.3849 98.4761 32.5034C98.9141 35.6174 99.1331 38.7359 98.9141 42.2954H67.0422C67.0422 45.8594 68.3607 49.1984 70.1217 50.9804V50.9759ZM83.9681 27.6029C82.4306 26.0459 80.0126 25.1549 77.1522 25.1549C75.1767 25.1549 73.6347 25.6049 72.3162 26.2709C70.9977 26.9369 70.1217 27.8279 69.2412 28.7189C68.4307 29.5792 67.8938 30.6635 67.6992 31.8329C67.4802 32.9489 67.2612 33.8399 67.2612 34.7264H87.0431C86.6051 31.3874 85.5056 29.1644 83.9681 27.6029ZM64.6242 4.22999H89.2421V10.242H64.6287V4.22999H64.6242Z" fill="#93AAC2"/>
</svg>
