<svg width="38" height="38" viewBox="0 0 38 38" fill="none" xmlns="http://www.w3.org/2000/svg">
<path fill-rule="evenodd" clip-rule="evenodd" d="M4.9167 0.764909C4.37844 0.261485 3.66653 -0.0125832 2.93094 0.000444019C2.19535 0.0134712 1.49351 0.312577 0.973288 0.834746C0.453065 1.35692 0.155074 2.06138 0.142095 2.79972C0.129117 3.53807 0.402163 4.25264 0.90371 4.79291L14.987 18.9289L0.90371 33.0649C0.624744 33.3258 0.400993 33.6405 0.245805 33.9901C0.0906159 34.3397 0.0071685 34.7171 0.000441887 35.0997C-0.00628472 35.4824 0.0638465 35.8625 0.206652 36.2174C0.349458 36.5723 0.562012 36.8946 0.831634 37.1653C1.10126 37.4359 1.42242 37.6492 1.77598 37.7926C2.12953 37.9359 2.50822 38.0063 2.88947 37.9996C3.27071 37.9928 3.64669 37.909 3.99499 37.7533C4.34328 37.5975 4.65675 37.3729 4.9167 37.0929L19 22.9569L33.0833 37.0929C33.3432 37.3729 33.6567 37.5975 34.005 37.7533C34.3533 37.909 34.7293 37.9928 35.1105 37.9996C35.4918 38.0063 35.8705 37.9359 36.224 37.7926C36.5776 37.6492 36.8987 37.4359 37.1684 37.1653C37.438 36.8946 37.6505 36.5723 37.7933 36.2174C37.9361 35.8625 38.0063 35.4824 37.9996 35.0997C37.9928 34.7171 37.9094 34.3397 37.7542 33.9901C37.599 33.6405 37.3753 33.3258 37.0963 33.0649L23.013 18.9289L37.0963 4.79291C37.5978 4.25264 37.8709 3.53807 37.8579 2.79972C37.8449 2.06138 37.5469 1.35692 37.0267 0.834746C36.5065 0.312577 35.8046 0.0134712 35.0691 0.000444019C34.3335 -0.0125832 33.6216 0.261485 33.0833 0.764909L19 14.9009L4.9167 0.764909Z" fill="#93AAC2"/>
</svg>
