<svg width="30" height="24" viewBox="0 0 30 24" fill="none" xmlns="http://www.w3.org/2000/svg">
<path d="M29.5341 2.82353C28.4471 3.31765 27.2753 3.64235 26.0612 3.79765C27.3035 3.04941 28.2635 1.86353 28.7153 0.437647C27.5435 1.14353 26.2447 1.63765 24.8753 1.92C23.76 0.705883 22.1929 0 20.4141 0C17.0965 0 14.3859 2.71059 14.3859 6.05647C14.3859 6.53647 14.4424 7.00235 14.5412 7.44C9.51529 7.18588 5.04 4.77176 2.06118 1.11529C1.53882 2.00471 1.24235 3.04941 1.24235 4.15059C1.24235 6.25412 2.30118 8.11765 3.93882 9.17647C2.93647 9.17647 2.00471 8.89412 1.18588 8.47059V8.51294C1.18588 11.4494 3.27529 13.9059 6.04235 14.4565C5.15397 14.6996 4.22131 14.7334 3.31765 14.5553C3.70109 15.7588 4.45205 16.8119 5.46496 17.5665C6.47788 18.3211 7.70181 18.7393 8.96471 18.7624C6.82395 20.4571 4.17035 21.3732 1.44 21.36C0.96 21.36 0.48 21.3318 0 21.2753C2.68235 22.9976 5.87294 24 9.28941 24C20.4141 24 26.5271 14.7671 26.5271 6.76235C26.5271 6.49412 26.5271 6.24 26.5129 5.97176C27.6988 5.12471 28.7153 4.05176 29.5341 2.82353Z" fill="#93AAC2"/>
</svg>
