<svg width="259" height="259" viewBox="0 0 259 259" fill="none" xmlns="http://www.w3.org/2000/svg">
<path d="M159.903 129.463L252.622 36.9601C256.682 32.8998 258.963 27.3929 258.963 21.6507C258.963 15.9086 256.682 10.4016 252.622 6.34135C248.562 2.28105 243.055 0 237.312 0C231.57 0 226.063 2.28105 222.003 6.34135L129.5 99.0601L36.9969 6.34135C32.9366 2.28105 27.4297 -4.27822e-08 21.6875 0C15.9454 4.27822e-08 10.4384 2.28105 6.37815 6.34135C2.31785 10.4016 0.0367986 15.9086 0.0367986 21.6507C0.0367985 27.3929 2.31785 32.8998 6.37815 36.9601L99.0969 129.463L6.37815 221.966C4.35713 223.971 2.75301 226.356 1.65831 228.983C0.563611 231.611 0 234.429 0 237.276C0 240.122 0.563611 242.941 1.65831 245.568C2.75301 248.196 4.35713 250.581 6.37815 252.585C8.38266 254.606 10.7675 256.21 13.3951 257.305C16.0227 258.4 18.841 258.963 21.6875 258.963C24.534 258.963 27.3524 258.4 29.98 257.305C32.6075 256.21 34.9924 254.606 36.9969 252.585L129.5 159.866L222.003 252.585C224.008 254.606 226.392 256.21 229.02 257.305C231.648 258.4 234.466 258.963 237.312 258.963C240.159 258.963 242.977 258.4 245.605 257.305C248.233 256.21 250.617 254.606 252.622 252.585C254.643 250.581 256.247 248.196 257.342 245.568C258.436 242.941 259 240.122 259 237.276C259 234.429 258.436 231.611 257.342 228.983C256.247 226.356 254.643 223.971 252.622 221.966L159.903 129.463Z" fill="#93AAC2" fill-opacity="0.5"/>
</svg>
