<svg width="41" height="360" viewBox="0 0 41 360" fill="none" xmlns="http://www.w3.org/2000/svg">
<path fill-rule="evenodd" clip-rule="evenodd" d="M0.268527 302.849C0.974663 305.924 2.84913 308.201 5.82388 309.598L7.38974 310.334L24.132 310.413L40.8746 310.492L40.7845 297.973C40.697 285.777 40.6778 285.403 40.0425 283.475C37.7448 276.504 31.4407 270.914 23.573 268.871C21.4235 268.313 20.3331 268.251 10.7073 268.14L0.190036 268.019L0.190036 274.924C0.190036 278.721 0.127073 286.206 0.0499943 291.557C-0.0550368 298.848 -0.000261958 301.678 0.268527 302.849ZM0.268527 34.8296C0.974663 37.9039 2.84913 40.1812 5.82388 41.5784L7.38974 42.3138L24.1346 42.3929L40.8791 42.4724L40.7857 29.8119L40.6922 17.1516L39.9426 15.0778C37.9885 9.67163 33.6198 5.02283 28.0882 2.46362C23.5306 0.355103 22.7251 0.245422 10.8484 0.115936L0.190036 0L0.190036 6.90408C0.190036 10.701 0.127073 18.1861 0.0499943 23.5374C-0.0550368 30.8282 -0.000261958 33.6582 0.268527 34.8296ZM0.637265 345.35C1.34114 348.262 2.88103 350.805 5.56893 353.495C7.68677 355.614 8.41182 356.135 10.9501 357.36C15.7451 359.673 16.1505 359.728 29.3418 359.873L40.8472 360V338.764V317.528L36.4003 317.607L31.9535 317.684L31.8806 334.32L31.8078 350.956L25.1044 350.838C19.1411 350.734 18.191 350.652 16.4975 350.095C13.7018 349.176 11.3115 347.262 10.1502 345.013L9.22497 343.221V334.914V326.608L12.5425 326.528L15.86 326.449V322.066V317.684L8.02501 317.609L0.190036 317.534L0.213471 330.614C0.232105 340.871 0.323584 344.052 0.637265 345.35ZM4.618 255.564L9.08379 255.486L9.22497 247.711C9.35767 240.4 9.40369 239.86 9.99406 238.664C10.9803 236.666 12.143 235.451 14.0742 234.403L15.86 233.433L28.3536 233.352L40.8472 233.27V228.616V223.962L30.1888 223.967C18.4073 223.972 15.2597 224.191 12.5013 225.193C7.21102 227.116 2.92169 231.503 0.990474 236.967C0.378358 238.699 0.335441 239.291 0.246504 247.223L0.152202 255.641L4.618 255.564ZM4.71202 219.721H9.23428L9.1589 212.159L9.08379 204.596L4.63692 204.518L0.190036 204.44L0.190036 212.081L0.190036 219.721H4.71202ZM0.613831 193.233C1.92672 198.015 5.91394 202.169 10.5754 203.61C12.2839 204.139 13.2232 204.172 26.6186 204.172H40.8472V199.79V195.407H27.7697C13.2017 195.407 12.6012 195.344 11.0379 193.648C9.32378 191.788 9.37545 191.996 9.22497 186.389L9.08379 181.13L4.63692 181.052L0.190036 180.974L0.215164 186.424C0.231822 189.992 0.369323 192.343 0.613831 193.233ZM0.760083 164.247C2.35362 170.338 7.2466 175.367 13.0513 176.881C14.4223 177.239 16.9631 177.313 27.7776 177.313H40.8472V172.79V168.266H33.3652H25.8831V161.243C25.8831 153.753 26.0548 152.481 27.3036 150.725C28.5072 149.032 29.6049 148.772 35.5533 148.765L40.8472 148.758V144.235V139.711H35.3554C29.2738 139.711 27.6701 139.946 25.1815 141.198C22.9928 142.299 19.9734 145.229 18.8477 147.344C17.1331 150.565 16.8482 152.485 16.8482 160.819V168.266H15.9981C13.7331 168.266 10.8535 165.818 9.79896 162.996C9.28454 161.619 9.22497 160.802 9.22497 155.116V148.773L13.3895 148.695L17.554 148.617V144.235V139.853L8.87204 139.778L0.190036 139.703L0.205565 150.945C0.219682 161.069 0.274738 162.393 0.760083 164.247ZM0.62936 118.165C2.02554 123.359 5.71574 127.623 11.1096 130.274C15.5119 132.439 17.0749 132.635 29.9065 132.64L40.8472 132.643V111.432V90.2206L36.4003 90.2986L31.9535 90.3764L31.8806 106.986L31.8078 123.596H25.5166C20.8509 123.596 18.8076 123.487 17.6085 123.174C14.0386 122.243 11.1762 120.128 9.93703 117.505C9.22581 115.999 9.22497 115.987 9.22497 107.64V99.2821H12.6201H16.0156L15.9376 94.8293L15.86 90.3764L8.02501 90.3012L0.190036 90.226L0.208671 103.448C0.223353 113.953 0.309749 116.977 0.62936 118.165ZM4.63692 86.2133L9.08379 86.1356L9.08379 78.5021V70.8686L4.63692 70.7909L0.190036 70.7128L0.190036 78.5021L0.190036 86.2914L4.63692 86.2133ZM0.636419 59.6694C1.89001 64.3377 5.44836 68.1288 10.2973 69.9622C11.8558 70.5514 12.3691 70.5738 26.3772 70.6634L40.8472 70.7558L40.8472 66.2179V61.6802H27.198H13.549L12.3045 61.0223C11.6201 60.6607 10.679 59.8232 10.2132 59.1614L9.36614 57.9585L9.22497 52.6806L9.08379 47.4027L4.63692 47.325L0.190036 47.247L0.208671 52.6967C0.221659 56.5137 0.349842 58.6024 0.636419 59.6694ZM9.12982 277.715L9.3091 277.043L14.8433 277.185C20.847 277.339 22.8852 277.742 25.6008 279.311C27.567 280.448 29.8088 282.737 30.7848 284.606L31.6711 286.302L31.7586 293.865L31.8459 301.428H20.5824C14.3876 301.428 9.23428 301.343 9.13095 301.239C8.89067 300.999 8.88983 278.613 9.12982 277.715ZM9.1205 9.73013C9.28793 9.10477 9.36529 9.09402 13.7049 9.09631C16.1324 9.09744 18.9333 9.23059 19.9288 9.3923C24.9587 10.2097 28.9231 12.8514 30.858 16.6755L31.6711 18.2825L31.7547 25.8452L31.8383 33.4081H20.5788C14.3859 33.4081 9.23428 33.3232 9.13095 33.2195C8.8966 32.9848 8.88672 10.6038 9.1205 9.73013ZM13.9308 261.941C14.0341 262.045 20.1327 262.13 27.4831 262.13H40.8472V257.606V253.082H27.2948H13.7424V257.417C13.7424 259.802 13.8271 261.837 13.9308 261.941Z" fill="#93AAC2" fill-opacity="0.1"/>
</svg>
