<svg width="612" height="186" viewBox="0 0 612 186" fill="none" xmlns="http://www.w3.org/2000/svg">
<mask id="path-1-inside-1_627_11" fill="white">
<path fill-rule="evenodd" clip-rule="evenodd" d="M211 8.9964V17.9946L242.539 18.4823L274.079 18.97L274.677 23.2342C275.008 25.5797 274.208 28.179 272.9 29.0132C271.594 29.8457 257.133 30.5388 240.762 30.5549L211 30.5817V55.5915V80.6014H219.884H228.769V64.6951V48.7889L253.2 48.1708C275.045 47.6188 278.219 47.1311 283.172 43.5797C294.727 35.2943 296.026 16.9924 285.792 6.69371L280.237 1.10579L245.619 0.553788L211 0V8.9964ZM308.727 40.407V80.6014H317.612H326.496V40.407V0.212596H317.612H308.727V40.407ZM352.115 1.94364C350.082 2.77075 346.283 5.99701 343.675 9.11252C335.29 19.1325 337.98 36.6305 349.06 44.1442C353.19 46.9453 358.12 47.6259 378.025 48.1368C391.218 48.4762 402.773 49.4873 403.7 50.3859C404.628 51.2845 408.827 52.0187 413.029 52.0187C419.982 52.0187 420.669 51.6185 420.669 47.5812C420.669 45.1392 418.338 40.5177 415.49 37.3093L410.309 31.4749L384.839 30.93C364.133 30.4888 358.964 29.8582 357.216 27.5573C355.716 25.5869 355.601 23.7201 356.834 21.4031C358.456 18.3537 361.191 18.0768 389.637 18.0768H420.669V9.14467V0.212596L388.242 0.325131C370.407 0.387656 354.149 1.11653 352.115 1.94364ZM274.967 65.4168V80.6014H283.851H292.736V65.4168V50.2323H283.851H274.967V65.4168ZM347.26 63.893C346.59 64.5665 346.041 68.602 346.041 72.8608V80.6014H384.342H422.642L422.1 72.1159L421.558 63.6304L385.018 63.1481C364.922 62.8837 347.932 63.2177 347.26 63.893ZM216.519 110.794L211 115.976V150.988V186H235.528C258.254 186 260.722 185.666 269.142 181.446C286.669 172.666 292.675 159.659 294.054 127.495L294.992 105.611H258.515H222.038L216.519 110.794ZM307.297 114.097L307.839 122.582L339.801 123.475C368.751 124.285 371.82 124.67 372.374 127.581C373.819 135.146 370.388 135.98 337.829 135.98H306.95V160.99V186H315.835H324.719V169.922V153.845L347.374 153.841C373.16 153.839 379.594 151.808 386.429 141.522C391.218 134.314 391.548 127.211 387.495 118.622C381.886 106.737 377.844 105.625 340.169 105.618L306.755 105.611L307.297 114.097ZM404.678 114.543V123.475H436.542C467.093 123.475 468.453 123.625 469.56 127.134C472.065 135.067 468.559 135.98 435.556 135.98H404.678V160.99V186H413.562H422.446V170.094V154.188L446.962 153.569C473.216 152.907 477.875 151.495 483.805 142.397C490.942 131.443 487.62 115.624 476.783 108.98C471.942 106.013 467.456 105.624 437.994 105.618L404.678 105.611V114.543ZM520.536 109.413C516.337 111.503 510.74 116.058 508.098 119.538C503.38 125.749 503.283 126.405 502.732 155.933L502.17 186H510.212H518.253L518.77 171.262L519.285 156.524L531.686 155.986C553.891 155.023 557.488 157.607 557.488 174.515V186H566.555H575.62L574.995 171.262C573.931 146.227 565.178 138.837 536.165 138.469C520.678 138.274 519.33 137.978 519.82 134.885C520.115 133.031 522.359 129.705 524.806 127.495C528.631 124.04 531.236 123.475 543.372 123.475H557.488V131.514V139.553H566.372H575.256V122.582V105.611L551.713 105.613C531.282 105.613 527.16 106.117 520.536 109.413ZM611.156 109.413C594.905 117.5 589.471 131.169 589.471 163.954V186H631.227H672.983V177.068V168.136H640.112H607.24V154.263C607.24 137.434 610.758 129.438 620.262 124.669C626.298 121.639 626.785 120.806 626.785 113.504C626.785 106.51 626.33 105.611 622.787 105.613C620.587 105.613 615.355 107.324 611.156 109.413ZM692.252 110.006C683.913 115.703 681.868 122.103 681.868 142.499V159.204H709.409H736.95V150.272V141.34H718.196H699.441L699.983 132.854L700.525 124.369L732.952 123.881L765.38 123.395V114.502V105.611H732.032C699.533 105.611 698.52 105.724 692.252 110.006ZM784.7 108.62C768.037 119.017 771.334 146.804 789.846 151.974C793.492 152.992 805.871 153.828 817.353 153.834C830.081 153.841 838.231 154.541 838.231 155.631C838.231 156.613 842.229 157.417 847.116 157.417C854.866 157.417 856 156.953 856 153.782C856 151.781 854.682 148.123 853.072 145.652C847.752 137.492 842.126 135.98 817.06 135.98C795.514 135.98 793.801 135.728 791.973 132.293C787.818 124.488 791.63 123.475 825.122 123.475H856V114.543V105.611L822.684 105.659C795.036 105.699 788.573 106.203 784.7 108.62ZM276.221 135.928C274.134 160.953 266.836 168.118 243.428 168.129L228.769 168.136V145.806V123.475H253.014H277.259L276.221 135.928ZM372.694 170.815V186H381.578H390.463V170.815V155.631H381.578H372.694V170.815ZM470.421 170.815V186H479.306H488.19V170.815V155.631H479.306H470.421V170.815ZM681.868 177.068V186H723.624H765.38V177.068V168.136H723.624H681.868V177.068ZM782.557 169.327C781.905 169.981 781.372 174.001 781.372 178.259V186H818.686H856V177.068V168.136H819.871C799.999 168.136 783.207 168.672 782.557 169.327Z"/>
</mask>
<path fill-rule="evenodd" clip-rule="evenodd" d="M211 8.9964V17.9946L242.539 18.4823L274.079 18.97L274.677 23.2342C275.008 25.5797 274.208 28.179 272.9 29.0132C271.594 29.8457 257.133 30.5388 240.762 30.5549L211 30.5817V55.5915V80.6014H219.884H228.769V64.6951V48.7889L253.2 48.1708C275.045 47.6188 278.219 47.1311 283.172 43.5797C294.727 35.2943 296.026 16.9924 285.792 6.69371L280.237 1.10579L245.619 0.553788L211 0V8.9964ZM308.727 40.407V80.6014H317.612H326.496V40.407V0.212596H317.612H308.727V40.407ZM352.115 1.94364C350.082 2.77075 346.283 5.99701 343.675 9.11252C335.29 19.1325 337.98 36.6305 349.06 44.1442C353.19 46.9453 358.12 47.6259 378.025 48.1368C391.218 48.4762 402.773 49.4873 403.7 50.3859C404.628 51.2845 408.827 52.0187 413.029 52.0187C419.982 52.0187 420.669 51.6185 420.669 47.5812C420.669 45.1392 418.338 40.5177 415.49 37.3093L410.309 31.4749L384.839 30.93C364.133 30.4888 358.964 29.8582 357.216 27.5573C355.716 25.5869 355.601 23.7201 356.834 21.4031C358.456 18.3537 361.191 18.0768 389.637 18.0768H420.669V9.14467V0.212596L388.242 0.325131C370.407 0.387656 354.149 1.11653 352.115 1.94364ZM274.967 65.4168V80.6014H283.851H292.736V65.4168V50.2323H283.851H274.967V65.4168ZM347.26 63.893C346.59 64.5665 346.041 68.602 346.041 72.8608V80.6014H384.342H422.642L422.1 72.1159L421.558 63.6304L385.018 63.1481C364.922 62.8837 347.932 63.2177 347.26 63.893ZM216.519 110.794L211 115.976V150.988V186H235.528C258.254 186 260.722 185.666 269.142 181.446C286.669 172.666 292.675 159.659 294.054 127.495L294.992 105.611H258.515H222.038L216.519 110.794ZM307.297 114.097L307.839 122.582L339.801 123.475C368.751 124.285 371.82 124.67 372.374 127.581C373.819 135.146 370.388 135.98 337.829 135.98H306.95V160.99V186H315.835H324.719V169.922V153.845L347.374 153.841C373.16 153.839 379.594 151.808 386.429 141.522C391.218 134.314 391.548 127.211 387.495 118.622C381.886 106.737 377.844 105.625 340.169 105.618L306.755 105.611L307.297 114.097ZM404.678 114.543V123.475H436.542C467.093 123.475 468.453 123.625 469.56 127.134C472.065 135.067 468.559 135.98 435.556 135.98H404.678V160.99V186H413.562H422.446V170.094V154.188L446.962 153.569C473.216 152.907 477.875 151.495 483.805 142.397C490.942 131.443 487.62 115.624 476.783 108.98C471.942 106.013 467.456 105.624 437.994 105.618L404.678 105.611V114.543ZM520.536 109.413C516.337 111.503 510.74 116.058 508.098 119.538C503.38 125.749 503.283 126.405 502.732 155.933L502.17 186H510.212H518.253L518.77 171.262L519.285 156.524L531.686 155.986C553.891 155.023 557.488 157.607 557.488 174.515V186H566.555H575.62L574.995 171.262C573.931 146.227 565.178 138.837 536.165 138.469C520.678 138.274 519.33 137.978 519.82 134.885C520.115 133.031 522.359 129.705 524.806 127.495C528.631 124.04 531.236 123.475 543.372 123.475H557.488V131.514V139.553H566.372H575.256V122.582V105.611L551.713 105.613C531.282 105.613 527.16 106.117 520.536 109.413ZM611.156 109.413C594.905 117.5 589.471 131.169 589.471 163.954V186H631.227H672.983V177.068V168.136H640.112H607.24V154.263C607.24 137.434 610.758 129.438 620.262 124.669C626.298 121.639 626.785 120.806 626.785 113.504C626.785 106.51 626.33 105.611 622.787 105.613C620.587 105.613 615.355 107.324 611.156 109.413ZM692.252 110.006C683.913 115.703 681.868 122.103 681.868 142.499V159.204H709.409H736.95V150.272V141.34H718.196H699.441L699.983 132.854L700.525 124.369L732.952 123.881L765.38 123.395V114.502V105.611H732.032C699.533 105.611 698.52 105.724 692.252 110.006ZM784.7 108.62C768.037 119.017 771.334 146.804 789.846 151.974C793.492 152.992 805.871 153.828 817.353 153.834C830.081 153.841 838.231 154.541 838.231 155.631C838.231 156.613 842.229 157.417 847.116 157.417C854.866 157.417 856 156.953 856 153.782C856 151.781 854.682 148.123 853.072 145.652C847.752 137.492 842.126 135.98 817.06 135.98C795.514 135.98 793.801 135.728 791.973 132.293C787.818 124.488 791.63 123.475 825.122 123.475H856V114.543V105.611L822.684 105.659C795.036 105.699 788.573 106.203 784.7 108.62ZM276.221 135.928C274.134 160.953 266.836 168.118 243.428 168.129L228.769 168.136V145.806V123.475H253.014H277.259L276.221 135.928ZM372.694 170.815V186H381.578H390.463V170.815V155.631H381.578H372.694V170.815ZM470.421 170.815V186H479.306H488.19V170.815V155.631H479.306H470.421V170.815ZM681.868 177.068V186H723.624H765.38V177.068V168.136H723.624H681.868V177.068ZM782.557 169.327C781.905 169.981 781.372 174.001 781.372 178.259V186H818.686H856V177.068V168.136H819.871C799.999 168.136 783.207 168.672 782.557 169.327Z" fill="#93AAC2" fill-opacity="0.2" stroke="#93AAC2" stroke-opacity="0.6" stroke-width="2" mask="url(#path-1-inside-1_627_11)"/>
<path d="M69.5411 2.42562L69.5412 2.42559C70.5706 2.22175 73.1394 2.01457 76.9466 1.81954C80.7362 1.62541 85.7128 1.44485 91.5267 1.28741C103.154 0.972543 118.122 0.750372 133.623 0.696729L189.5 0.501748V35.7692V71.0385H170.467H151.435V56.3365V41.1346V40.6346H150.935H113.588C92.944 40.6346 81.459 40.851 73.7917 42.3809C69.9415 43.1491 67.0367 44.251 64.4084 45.829C61.7869 47.4029 59.4604 49.439 56.7611 52.0439C43.0306 65.2923 38.5654 82.274 38.5654 120.156V144.865V145.365H39.0654H114.533H189.5V165.433V185.5H95H0.500259L0.526645 134.582C0.540856 105.668 0.803693 89.3657 2.38641 77.6329C3.96443 65.9349 6.85387 58.7835 12.1597 48.1723L11.7592 47.972L12.1597 48.1723C23.6897 25.112 46.4378 6.99426 69.5411 2.42562Z" stroke="#00FFE9"/>
</svg>
