<svg width="339" height="202" viewBox="0 0 339 202" fill="none" xmlns="http://www.w3.org/2000/svg">
<path fill-rule="evenodd" clip-rule="evenodd" d="M125.31 110.2L118.55 116.458V158.739V201.019H148.592C176.427 201.019 179.45 200.616 189.764 195.521C211.231 184.917 218.587 169.21 220.275 130.368L221.425 103.942H176.747H132.07L125.31 110.2ZM158.268 179.438C186.939 179.425 195.877 170.772 198.434 140.553L199.705 125.515H170.009H140.313V152.481V179.447L158.268 179.438Z" fill="white"/>
<path d="M251.375 9.75936C254.27 6.34299 258.485 2.80518 260.741 1.8982C262.998 0.991215 281.039 0.191974 300.829 0.123412L336.811 0V9.79462V19.5892H302.376C270.812 19.5892 267.778 19.8929 265.978 23.2367C264.609 25.7775 264.737 27.8245 266.401 29.9852C268.342 32.5083 274.077 33.1998 297.053 33.6837L325.314 34.2812L331.064 40.679C334.224 44.1972 336.811 49.265 336.811 51.9428C336.811 56.37 336.048 56.8088 328.333 56.8088C323.67 56.8088 319.011 56.0037 317.982 55.0183C316.953 54.033 304.131 52.9242 289.491 52.552C267.405 51.9918 261.934 51.2454 257.352 48.1738C245.056 39.9346 242.071 20.747 251.375 9.75936Z" fill="white"/>
<path d="M254.002 79.6635C254.002 74.9935 254.611 70.5683 255.354 69.8297C256.1 69.0893 274.953 68.723 297.252 69.0129L337.797 69.5418L338.399 78.8467L339 88.1516H296.501H254.002V79.6635Z" fill="white"/>
<path d="M213.586 88.1516V44.0758V0L223.445 0L233.303 0V44.0758V88.1516H223.445H213.586Z" fill="white"/>
<path d="M110.712 19.7322V9.86514V0L149.126 0.607265L187.54 1.21257L193.703 7.34009C205.06 18.6333 203.619 38.7024 190.797 47.7879C185.3 51.6823 181.779 52.2171 157.539 52.8224L130.429 53.5002V70.9424V88.3847H120.571H110.712V60.9597V33.5348L143.737 33.5054C161.902 33.4878 177.95 32.7277 179.399 31.8149C180.85 30.9001 181.737 28.0498 181.37 25.4778L180.706 20.8018L145.709 20.267L110.712 19.7322Z" fill="white"/>
<path d="M181.692 88.3847V71.7338V55.083H191.55H201.408V71.7338V88.3847H191.55H181.692Z" fill="white"/>
<path d="M238.08 125.834V114.887V103.942L280.822 104.616L323.564 105.287L330.422 112.085C343.058 124.614 341.454 146.88 327.188 156.96C321.072 161.281 317.154 161.874 290.183 162.545L260.018 163.297V182.649V202H249.049H238.08V171.573V141.147L274.826 141.114C295.038 141.095 312.893 140.252 314.506 139.239C316.12 138.224 317.108 135.062 316.7 132.208L315.96 127.02L277.02 126.427L238.08 125.834Z" fill="white"/>
<path d="M317.057 202V183.527V165.054H328.026H338.995V183.527V202H328.026H317.057Z" fill="white"/>
<path d="M5.6773 22.7505C11.2961 11.7503 22.3813 3.10156 33.661 0.918166C35.7405 0.51509 49.7384 0.144262 64.7691 0.0933475L92.0969 0V16.9716V33.9432H82.629H73.1611V26.7303V19.5174H55.0585C35.0261 19.5174 32.9027 19.9323 27.6816 24.8643C21.1031 31.0776 18.9358 39.0449 18.9358 57.0111V68.7351H55.5164H92.0969V78.4938V88.2524H46.0485H0L0.0129111 63.8557C0.0266826 36.4279 0.520735 32.8452 5.6773 22.7505Z" fill="white"/>
<path d="M6.28127 128.967C12.4978 116.867 24.7623 107.353 37.242 104.952C39.5427 104.508 55.0297 104.1 71.6594 104.044L101.894 103.942V122.611V141.279H91.4193H80.9442V133.345V125.411H60.9158C38.7523 125.411 36.403 125.867 30.6264 131.292C23.3481 138.127 20.9503 146.891 20.9503 166.654V179.55H61.4224H101.894V190.285V201.019H50.9472H0L0.0142846 174.183C0.0295212 144.012 0.576132 140.071 6.28127 128.967Z" fill="white"/>
</svg>
