<svg width="42" height="401" viewBox="0 0 42 401" fill="none" xmlns="http://www.w3.org/2000/svg">
<path fill-rule="evenodd" clip-rule="evenodd" d="M0.576637 387.174C1.41559 390.246 2.7886 392.619 5.13458 395.05C6.88593 396.865 7.70831 397.467 9.84941 398.502C11.4693 399.285 13.1406 399.862 14.3005 400.039C15.3312 400.196 21.7216 400.323 28.6593 400.325L41.1607 400.327V395.814V391.3H33.5678H25.9753L26.067 383.614C26.1658 375.344 26.2167 375.048 27.8355 373.291C29.0805 371.94 29.6285 371.837 35.5743 371.837H41.1607V367.183V362.528L36.3744 362.534C33.7419 362.537 30.6881 362.667 29.588 362.822C23.7296 363.649 18.7616 368.332 17.3148 374.391C16.9839 375.777 16.8796 378.002 16.8765 383.755C16.8731 389.81 16.7979 391.3 16.4956 391.3C16.2881 391.3 15.4621 391.108 14.6594 390.872C12.882 390.351 11.0135 388.654 10.0069 386.646C9.32392 385.283 9.29706 385.009 9.21419 378.544L9.12819 371.852L13.3575 371.774L17.5866 371.696L17.5866 367.183V362.669L8.79986 362.595L0.0131437 362.52L0.0302878 373.878C0.0457181 384.014 0.104583 385.444 0.576637 387.174ZM0.547491 341.514C1.4133 344.483 2.80175 346.691 5.44405 349.302C7.48 351.313 8.36696 351.956 10.6015 353.042C15.5658 355.455 16.2024 355.544 29.5165 355.689L41.1607 355.816L41.1607 334.631V313.447H36.5887H32.0168V330.119L32.0168 346.791L25.2303 346.672C19.0985 346.565 18.2661 346.493 16.6019 345.916C13.1786 344.731 10.9681 342.887 9.72168 340.175C9.21677 339.078 9.16905 338.268 9.16333 330.724L9.15705 322.473H12.586H16.015V317.96V313.447H8.01406H0.0131437L0.0334315 326.634C0.0514335 338.246 0.11287 340.023 0.547491 341.514ZM0.413761 298.074C1.73877 302.199 5.17888 305.474 9.28849 306.524C10.6346 306.868 12.746 306.959 19.3611 306.959H27.7306V292.855V278.751H23.1586H18.5867V288.364V297.976L14.7048 297.884L10.8232 297.792L9.99 296.87L9.15705 295.949V280.298L9.15705 264.648H4.58509H0.0131437L0.0322891 280.797C0.0468622 293.015 0.139444 297.22 0.413761 298.074ZM4.50708 258.661L9.01417 258.583L9.15705 242.691L9.29992 226.799L9.96314 226.269C11.5019 225.039 14.2602 225.504 15.0797 227.131C15.3498 227.667 15.436 231.553 15.4392 243.325L15.4435 258.814L22.0871 258.629C25.7409 258.527 31.5273 258.443 34.9457 258.442L41.1607 258.442V253.929V249.415H32.874H24.5874L24.5817 239.049C24.5757 227.727 24.3891 225.516 23.2429 223.182C22.2608 221.183 19.7403 218.703 17.6829 217.713C11.5205 214.747 3.98531 217.317 1.07841 223.375L0.156017 225.298L0.0780075 242.018L0 258.738L4.50708 258.661ZM0.554062 195.68C2.72145 203.011 9.59024 208.467 18.1072 209.622C19.3616 209.792 24.9106 209.925 30.7515 209.925H41.1607V188.769V167.613H36.5887H32.0168V184.281V200.949L25.0874 200.832C18.8556 200.726 17.9878 200.652 16.4667 200.1C13.0835 198.871 11.0818 197.198 9.82998 194.551C9.17876 193.175 9.16248 192.942 9.1599 184.89L9.15705 176.639H12.5932H16.0295L15.9507 172.197L15.8721 167.754L7.94262 167.679L0.0131437 167.604L0.0334315 180.796C0.0514335 192.491 0.110583 194.179 0.554062 195.68ZM0.201738 146.598C0.4932 147.944 1.77163 151.259 2.48543 152.52C4.36793 155.845 8.38896 159.05 12.3003 160.344C14.0836 160.934 14.6962 160.963 27.6592 161.061L41.1607 161.164V156.632V152.099H33.5678H25.9753L26.067 144.412C26.1658 136.143 26.2167 135.846 27.8355 134.09C29.167 132.644 29.788 132.51 35.6601 132.402L41.1607 132.301V127.783V123.265L34.9457 123.396C29.5094 123.51 28.5187 123.603 27.0394 124.133C22.2223 125.861 18.5435 130.043 17.3148 135.189C16.9837 136.576 16.8796 138.802 16.8765 144.566L16.8722 152.124L15.8007 151.932C13.4027 151.503 11.4059 149.942 10.06 147.444C9.30592 146.045 9.29906 145.979 9.21019 139.194L9.12018 132.353H13.4321H17.744L17.6652 127.911L17.5866 123.468L8.79986 123.393L0.0131437 123.319L0.0462896 134.677C0.0645774 140.923 0.134301 146.288 0.201738 146.598ZM13.1575 91.1701H26.3019V86.6568V82.1436H17.7295H9.15705V69.9807L9.15705 57.8181L14.6577 57.9586C20.5141 58.1084 22.142 58.3885 25.0509 59.7469C27.1997 60.7506 29.7231 63.137 30.899 65.2776L31.8739 67.0525L32.0168 79.0408L32.1597 91.029L36.6739 91.1069L41.1881 91.1845L41.0953 78.5545L41.0024 65.9242L40.2366 63.8656C37.6817 56.9967 31.7556 51.8621 23.8644 49.6793C21.7362 49.0906 20.8807 49.0413 10.8001 48.9281L0.0131437 48.8069L0.0131437 69.9886L0.0131437 91.1701H13.1575ZM0.527203 34.0531C1.71334 37.4394 4.11133 40.0853 7.37884 41.6133L9.29992 42.5117L18.5153 42.5967L27.7306 42.6818V28.5633L27.7306 14.4451H23.1586H18.5867L18.5867 24.21V33.975L14.9434 33.859C11.1667 33.7388 10.1186 33.4305 9.53823 32.2695C9.40707 32.0075 9.23563 24.7479 9.15705 16.1375L9.01417 0.482234L4.51366 0.404656L0.0131437 0.326802L0.0225725 16.4831C0.0308592 31.0642 0.0800095 32.777 0.527203 34.0531ZM33.4455 225.439H41.1607V220.926V216.412H33.4455H25.7304V220.926V225.439H33.4455ZM32.2074 306.771C32.312 306.875 34.3694 306.959 36.7793 306.959H41.1607V285.803V264.648H36.5887H32.0168V285.615C32.0168 297.148 32.1025 306.668 32.2074 306.771ZM36.587 42.6528H41.1607V21.4899V0.326802L36.6602 0.404656L32.1597 0.482234L32.0865 21.5675L32.0131 42.6528H36.587Z" fill="#93AAC2" fill-opacity="0.1"/>
</svg>
