<svg width="1274" height="145" viewBox="0 0 1274 145" fill="none" xmlns="http://www.w3.org/2000/svg">
<path fill-rule="evenodd" clip-rule="evenodd" d="M202.145 0.951072C191.271 3.45207 183.216 10.0911 178.274 20.6271L175.673 26.1731L175.393 85.4711L175.112 144.77L219.393 144.451C262.53 144.141 263.854 144.073 270.673 141.823C295.33 133.685 315.102 111.357 322.328 83.4911C324.302 75.8781 324.521 72.0161 324.913 37.9231L325.341 0.673072H300.92C287.489 0.673072 261.014 0.45007 242.086 0.17707C216.298 -0.19493 206.288 -0.000927806 202.145 0.951072ZM1150.15 0.951072C1139.27 3.45207 1131.22 10.0911 1126.27 20.6271L1123.67 26.1731L1123.39 85.4801L1123.11 144.786L1167.89 144.455L1212.67 144.124L1220.01 141.469C1239.13 134.548 1255.57 119.075 1264.62 99.4831C1272.08 83.3411 1272.47 80.4881 1272.93 38.4231L1273.34 0.673072H1248.92C1235.49 0.673072 1209.01 0.45007 1190.09 0.17707C1164.3 -0.19493 1154.29 -0.000927806 1150.15 0.951072ZM51.818 2.25707C41.518 4.75007 32.523 10.2041 23.009 19.7241C15.512 27.2251 13.671 29.7931 9.339 38.7831C1.157 55.7661 0.961 57.2021 0.448 103.923L0 144.673H75.112H150.224L149.948 128.923L149.673 113.173L90.831 112.915L31.989 112.657L32.405 88.9151C32.775 67.7941 33.066 64.4291 35.035 58.4311C38.286 48.5291 45.056 40.0631 53.01 35.9501L59.348 32.6731H88.729H118.11L118.391 44.4231L118.673 56.1731H134.173H149.673L149.939 28.4231L150.205 0.673072L103.939 0.756073C67.661 0.822073 56.409 1.14607 51.818 2.25707ZM369.397 16.3561L369.673 32.1731L397.173 32.6731C423.033 33.1431 424.941 33.3061 429.173 35.3971C436.24 38.8901 440.535 43.0081 444.244 49.8481L447.673 56.1731L447.962 100.423L448.252 144.673H464.712H481.173L481.156 106.923C481.137 65.1951 480.365 54.0471 476.818 44.2771C470.017 25.5401 454.499 10.3481 435.173 3.50807C429.048 1.34007 426.954 1.18807 398.897 0.873069L369.122 0.53907L369.397 16.3561ZM496.173 16.6891V32.7061L522.923 32.4391L549.673 32.1731L549.948 16.4231L550.224 0.673072H523.198H496.173V16.6891ZM589.864 2.17407C572.95 6.82407 558.258 20.9461 553.158 37.4561C551.289 43.5071 551.173 46.8341 551.173 94.2781V144.673H566.673H582.173V98.3551C582.173 46.7581 582.396 44.6311 588.396 39.0941C594.973 33.0231 594.239 33.2061 614.073 32.6731L632.673 32.1731L632.948 16.4231L633.224 0.673072L613.948 0.762069C601.326 0.821069 593.013 1.30807 589.864 2.17407ZM692.389 2.69207C670.846 8.33607 653.056 25.6661 647.701 46.2251C646.437 51.0811 646.173 60.0801 646.173 98.3831V144.673H662.173H678.173V118.173V91.6731H703.014C729.507 91.6731 734.006 92.2811 740.217 96.7041C746.204 100.967 747.126 104.855 747.151 125.923L747.173 144.673H763.173H779.173V125.222C779.173 103.682 778.344 98.0021 773.915 89.1881C770.019 81.4361 759.656 70.7421 752.176 66.7551C740.781 60.6821 733.992 59.6731 704.513 59.6731H678.173V56.6621C678.173 48.6401 686.832 38.4411 696.813 34.7061C701.685 32.8841 704.574 32.6731 724.684 32.6731H747.12L747.396 47.4231L747.673 62.1731H763.173H778.673L778.937 31.4231L779.202 0.673072L739.437 0.728073C703.63 0.778073 698.948 0.97307 692.389 2.69207ZM855.382 2.22907C837.012 7.17407 821.93 20.2441 812.552 39.3481C804.897 54.9401 804.202 60.4761 804.186 105.923L804.173 144.673H879.198H954.224L953.948 128.923L953.673 113.173L894.923 112.915L836.173 112.657V90.3751C836.173 73.8501 836.558 66.6131 837.665 62.3661C840.958 49.7221 848.44 39.5841 857.718 35.1951C863.043 32.6761 863.086 32.6731 892.611 32.6731H922.173V44.6981V56.7241L937.923 56.4481L953.673 56.1731L953.939 28.4231L954.205 0.673072L907.439 0.739074C870.283 0.791074 859.586 1.09707 855.382 2.22907ZM968.398 16.4231L968.673 32.1731H995.673H1022.67L1022.95 16.4231L1023.22 0.673072H995.673H968.122L968.398 16.4231ZM1062.29 2.25407C1045.77 6.69407 1032.36 19.2971 1025.88 36.4711C1023.8 41.9911 1023.72 43.8091 1023.4 93.4231L1023.07 144.673H1039.12H1055.17V96.3301V47.9881L1057.5 43.5801C1058.78 41.1561 1061.74 37.8231 1064.08 36.1731L1068.34 33.1731L1087.01 32.6731L1105.67 32.1731L1105.95 16.4231L1106.22 0.673072L1086.95 0.739074C1073.45 0.785074 1066.06 1.23907 1062.29 2.25407ZM291.047 32.3361L293.422 32.9711L292.92 52.5721C292.376 73.8361 290.951 81.0551 285.4 90.6731C281.381 97.6371 273.283 105.577 266.673 109.034L260.673 112.173L233.923 112.483L207.173 112.792V72.8991C207.173 50.9581 207.473 32.7061 207.84 32.3401C208.69 31.4891 287.871 31.4861 291.047 32.3361ZM1238.92 32.3031C1241.13 32.8961 1241.17 33.1701 1241.16 48.5401C1241.16 57.1381 1240.69 67.0581 1240.12 70.5841C1237.23 88.3991 1227.88 102.44 1214.36 109.293L1208.67 112.173L1181.92 112.469L1155.17 112.765V72.8861C1155.17 50.9521 1155.47 32.7061 1155.84 32.3401C1156.67 31.5101 1235.83 31.4751 1238.92 32.3031ZM346.84 49.3401C346.473 49.7061 346.173 71.3061 346.173 97.3401V144.673H362.173H378.173V96.6731V48.6731H362.84C354.406 48.6731 347.206 48.9731 346.84 49.3401Z" fill="#93AAC2" fill-opacity="0.1"/>
</svg>
