<svg width="273" height="2784" viewBox="0 0 273 2784" fill="none" xmlns="http://www.w3.org/2000/svg">
<path fill-rule="evenodd" clip-rule="evenodd" d="M1.48972 2090.57C5.13894 2110.08 19.2376 2127.37 38.9633 2136.54L49.5293 2141.45L161.014 2141.97L272.5 2142.5L271.938 2059.97L271.378 1977.45L266.068 1962.55C249.627 1916.43 209.424 1881.53 157.291 1868.13C142.978 1864.45 135.717 1864.04 71.6201 1863.31L1.58749 1862.51L1.58749 1908.03C1.58749 1933.06 1.19644 1982.4 0.718901 2017.68C0.241363 2052.95 0.589169 2085.75 1.48972 2090.57ZM1.45589 539.72C5.11074 559.134 20.3694 578.347 38.858 586.818C47.5138 590.784 49.3864 590.853 159.983 591.367L272.318 591.889V513.855C272.318 442.84 271.99 434.556 268.685 421.743C256.318 373.81 216.756 335.508 162.937 319.36C149.938 315.46 145.071 315.191 75.3803 314.539L1.58749 313.849L1.58373 360.094C1.58373 385.528 1.19268 434.433 0.717022 468.772C0.241364 503.111 0.574132 535.038 1.45589 539.72ZM31.6686 2783.5H61.7497L61.7497 2679.46L61.7497 2575.41L66.3879 2571.09C69.49 2568.21 74.0736 2566.48 80.2214 2565.9C88.4298 2565.12 90.0975 2565.63 95.7922 2570.67L102.171 2576.32L102.688 2679.91L103.203 2783.5H187.761H272.318V2753.68V2723.86H217.796H163.274L163.236 2655.37C163.215 2617.7 162.36 2581.01 161.335 2573.83C157.522 2547.13 140.508 2524.74 114.879 2512.7C102.978 2507.12 100.859 2506.74 81.4905 2506.74C62.1859 2506.74 59.9956 2507.13 48.5893 2512.57C33.4678 2519.77 21.7531 2529.71 13.7346 2542.14C1.53672 2561.04 1.58749 2560.48 1.58749 2677.61L1.58749 2783.5H31.6686ZM31.6686 2468.53H61.7497L61.7497 2364.49L61.7497 2260.45L66.2657 2256.24C71.8946 2251 84.1395 2249.18 92.0264 2252.42C103.113 2256.98 103.111 2256.96 103.111 2367.83L103.111 2468.53H187.714H272.318V2438.71V2408.89H217.796H163.274L163.236 2340.4C163.215 2302.73 162.36 2266.04 161.335 2258.87C157.522 2232.16 140.508 2209.77 114.879 2197.74C102.978 2192.15 100.859 2191.77 81.4905 2191.77C62.2085 2191.77 59.9674 2192.17 48.358 2197.62C27.3144 2207.5 12.396 2223.65 5.23483 2244.28C1.79054 2254.2 1.58749 2260.74 1.58749 2361.66L1.58749 2468.53H31.6686ZM45.427 1821.83C80.2684 1821.83 91.3646 1821.21 99.479 1818.82C129.868 1809.88 152.32 1788.71 163.497 1758.46C167.784 1746.86 167.974 1744.29 167.974 1697.89V1649.43L138.363 1648.92L108.752 1648.41L108.74 1689.92C108.729 1734.25 107.614 1742.04 99.9941 1751.01C90.3513 1762.38 87.3676 1763.03 42.479 1763.73L1.58749 1764.37L1.58749 1793.1L1.58749 1821.83H45.427ZM66.9951 1603.77C119.385 1603.77 134.633 1604.34 143.608 1606.61C171.565 1613.68 194.473 1630.55 205.06 1651.86L211.215 1664.26L211.744 1743.04L212.272 1821.83H242.295H272.318V1743.85C272.318 1672.34 272.009 1664.68 268.61 1651.5C257.204 1607.29 220.55 1569.57 173.151 1553.26C148.872 1544.91 140.058 1544.13 69.1478 1544.13H1.58749L1.58749 1573.95L1.58749 1603.77H66.9951ZM4.96974 1444.45C12.7739 1466.82 28.5515 1484.3 50.0501 1494.4L62.6898 1500.34L123.322 1500.9L183.954 1501.46V1408.18V1314.9H153.873H123.792V1379.38V1443.87L99.8212 1443.19C74.9234 1442.49 68.1495 1440.48 64.2578 1432.66C63.3948 1430.93 62.2668 1382.97 61.7497 1326.08L60.8097 1222.64L31.1986 1222.13L1.58749 1221.62L1.64953 1328.36C1.70405 1424.7 2.02743 1436.02 4.96974 1444.45ZM4.33803 1090.96C12.8153 1125.69 43.9116 1159.38 82.1165 1175.22C106.542 1185.34 116.586 1186.3 197.976 1186.3H272.318V1047.45V908.608H242.237H212.155V1018.8V1129L168.444 1128.06C130.94 1127.27 122.997 1126.58 112.512 1123.24C90.6069 1116.25 74.2015 1103.26 66.2375 1086.59C61.8738 1077.46 61.7855 1076.21 61.7685 1022.82L61.7497 968.364L83.8406 967.84L105.931 967.315L106.448 937.961L106.967 908.608H54.2765H1.58749L1.74729 994.804C1.86574 1058.44 2.54444 1083.61 4.33803 1090.96ZM31.6686 880.652H61.7497L61.7497 830.332V780.012H31.6686H1.58749L1.58749 830.332L1.58749 880.652H31.6686ZM4.26282 704.839C12.3246 737.791 41.5277 766.412 76.2319 775.373C85.0476 777.648 103.645 778.148 179.649 778.148H272.318V748.329V718.509H181.04C82.5038 718.509 84.6415 718.707 73.3178 708.507C63.1184 699.319 61.7497 693.347 61.7497 658.013L61.7497 625.324H31.6686H1.58749L1.74729 660.268C1.84318 681.334 2.84337 699.035 4.26282 704.839ZM3.37167 222.048C7.40254 238.785 21.1665 257.222 37.2825 267.475C81.8909 295.85 139.415 276.432 158.872 226.428C161.677 219.218 162.251 207.881 163.163 141.691L164.214 65.2789L170.282 62.4833L176.353 59.6878L176.393 30.0939L176.434 0.499959L166.564 1.75987C143.362 4.72131 120.917 21.0102 109.692 43.0318L104.051 54.0966L103.111 131.441C102.594 173.98 101.434 210.283 100.534 212.115C95.8918 221.553 76.843 223.838 67.5347 216.074L61.7497 211.248L61.7497 107.047L61.7497 2.84461H31.6686H1.58749L1.77925 109.542C1.88642 168.225 2.60272 218.854 3.37167 222.048ZM61.1162 1926.43L62.31 1922L99.1613 1922.94C139.139 1923.95 152.711 1926.61 170.794 1936.95C183.887 1944.44 198.814 1959.54 205.314 1971.85L211.215 1983.04L211.798 2032.89L212.379 2082.75H137.377C96.1268 2082.75 61.8118 2082.19 61.1237 2081.5C59.5237 2079.92 59.5181 1932.35 61.1162 1926.43ZM61.0541 377.916C62.1784 373.76 62.5018 373.723 96.657 373.723C115.616 373.723 135.61 374.657 141.091 375.797C168.532 381.51 194.21 399.981 205.06 421.812L211.215 434.198L211.774 483.169L212.33 532.138H137.353C96.1155 532.138 61.8118 531.579 61.1237 530.895C59.5632 529.348 59.4974 383.675 61.0541 377.916ZM221.556 2250.48H272.318V2220.66V2190.84H221.556H170.794V2220.66V2250.48H221.556ZM213.396 1500.01C214.092 1500.7 227.634 1501.27 243.491 1501.27H272.318L272.318 1361.44V1221.62L242.707 1222.13L213.095 1222.64L212.614 1360.7C212.349 1436.63 212.701 1499.32 213.396 1500.01ZM213.396 251.326C214.092 252.017 227.634 252.582 243.491 252.582H272.318V126.735V0.885805L242.707 1.40019L213.095 1.91276L212.612 125.991C212.347 194.235 212.699 250.636 213.396 251.326Z" fill="#93AAC2" fill-opacity="0.15"/>
</svg>
