<svg width="375" height="37" viewBox="0 0 375 37" fill="none" xmlns="http://www.w3.org/2000/svg">
<path fill-rule="evenodd" clip-rule="evenodd" d="M93.3699 0.132201C90.7416 0.619642 88.4111 2.50286 87.1756 5.1377L86.5138 6.54904L86.4435 21.4405L86.373 36.3322L97.4932 36.2571L108.613 36.1822L110.62 35.473C116.835 33.2769 121.537 27.9068 123.343 20.9432C123.839 19.0314 123.894 18.0615 123.992 9.49981L124.1 0.14526H117.967C114.594 0.14526 107.945 0.0930262 103.192 0.0292395C98.4389 -0.0345472 94.0188 0.0119106 93.3699 0.132201ZM302.342 0.127682C299.726 0.615876 297.137 2.65404 295.996 5.12364C295.461 6.27983 295.452 6.52996 295.383 21.3029L295.312 36.3078H305.827C315.396 36.3078 316.512 36.2641 318.239 35.8226C324.698 34.1707 329.859 28.8862 332.035 21.6974C332.56 19.9611 332.596 19.3109 332.684 10.0021L332.777 0.14526L326.546 0.144759C323.119 0.144759 316.529 0.0925241 311.902 0.0289885C307.275 -0.0345471 302.973 0.00990217 302.342 0.127682ZM0 4.16332V8.18138H14.0195H28.0388L28.6209 8.80092C29.0101 9.21528 29.2422 9.82753 29.321 10.6487C29.4265 11.7451 29.3577 11.9679 28.6779 12.7286L27.9167 13.5806L13.9585 13.6497L0 13.7185V25.0133V36.3078H4.01806H8.03612V29.0251V21.7423L17.2651 21.7373C22.3412 21.7345 27.2851 21.6203 28.252 21.4834C31.8507 20.9741 34.867 18.7014 36.4888 15.278C37.2416 13.6884 37.2926 13.4054 37.2926 10.8182C37.2926 8.23964 37.2404 7.94708 36.5076 6.42348C35.5362 4.40365 34.197 2.83887 32.5229 1.7678C29.9757 0.13848 30.0516 0.14526 14.2686 0.14526H0V4.16332ZM42.4408 4.16332V8.18138H56.4603H70.4795L71.0463 8.78459C71.7525 9.53647 71.9974 11.1721 71.5609 12.2256C70.9474 13.7065 70.9501 13.7062 56.0097 13.7062H42.4408V25.007V36.3078H46.4588H50.4769V29.0251V21.7423L59.7059 21.7373C64.7817 21.7345 69.7259 21.6203 70.6927 21.4834C74.2914 20.9741 77.3077 18.7014 78.9295 15.278C79.6824 13.6884 79.7334 13.4054 79.7334 10.8182C79.7334 8.24266 79.6801 7.94331 78.9453 6.39259C77.6136 3.58171 75.4386 1.589 72.6583 0.632451C71.3208 0.172383 70.4404 0.14526 56.8412 0.14526H42.4408V4.16332ZM129.582 6.00108C129.582 10.655 129.666 12.1372 129.987 13.221C131.191 17.2803 134.044 20.2793 138.121 21.7722C139.684 22.3448 140.03 22.3702 146.282 22.3702H152.812L152.881 18.4149L152.95 14.4596L147.356 14.4581C141.383 14.4566 140.334 14.3077 139.124 13.2898C137.593 12.0018 137.504 11.6033 137.41 5.60731L137.325 0.14526H133.454H129.582V6.00108ZM158.964 8.88203C158.964 15.88 158.888 17.9166 158.582 19.1155C157.629 22.8498 155.356 25.9098 152.484 27.3239L150.814 28.1461L140.198 28.2167L129.582 28.2872V32.2975V36.3078H140.09C149.725 36.3078 150.758 36.2666 152.533 35.8126C158.49 34.289 163.573 29.393 165.771 23.0618C166.896 19.8187 167.001 18.6414 167.001 9.16957V0.14526H162.983H158.964V8.88203ZM180.433 0.597042C177.418 1.63948 175.062 3.74695 173.702 6.61861L172.902 8.30694L172.827 16.4058L172.751 24.5047H185.32H197.889V20.4867V16.4686H189.2H180.511L180.602 13.2667C180.697 9.94104 180.967 9.03622 182.021 8.51639C182.254 8.40112 188.717 8.25044 196.383 8.18138L210.32 8.05582L210.389 4.10054L210.459 0.14526L196.075 0.153547C183.094 0.16083 181.569 0.204026 180.433 0.597042ZM228.064 0.512661C223.384 1.645 218.845 5.79867 216.711 10.9019C215.347 14.1645 215.217 15.506 215.217 26.3777V36.3078H233.926H252.636V32.2897V28.2717H237.787H222.939L223.065 22.4329C223.172 17.4234 223.264 16.3624 223.715 14.9619C224.656 12.036 226.406 9.84461 228.653 8.78082C229.884 8.19795 230.052 8.18615 237.246 8.18389L244.584 8.18138L244.654 11.1321L244.725 14.0829L248.68 14.152L252.636 14.2213V7.18314V0.14526L241.021 0.166606C232.446 0.182427 229.055 0.273084 228.064 0.512661ZM256.402 4.16332V8.18138H263.183H269.963V4.16332V0.14526H263.183H256.402V4.16332ZM280.093 0.502616C275.652 1.57946 271.796 5.48024 270.588 10.1158C270.282 11.2934 270.215 13.7775 270.215 23.9297V36.3078H274.233H278.251V24.1155C278.251 10.9536 278.224 11.2391 279.598 9.72657C280.836 8.3642 281.641 8.18138 286.402 8.18138H290.807V4.16332V0.14526L286.098 0.166606C283.26 0.179414 280.875 0.313014 280.093 0.502616ZM345.147 0.383581C342.892 0.922001 340.408 2.76052 339.026 4.91319C335.203 10.8717 337.819 18.5555 344.557 21.1544C345.529 21.5291 347.056 21.6057 355.975 21.7275L366.271 21.8679L366.648 22.6785L367.025 23.4894L371.012 23.4947L375 23.5002L374.83 22.1818C374.431 19.0826 372.236 16.0847 369.269 14.5852L367.778 13.8318L357.356 13.7062C351.624 13.6372 346.732 13.4822 346.486 13.3619C345.214 12.7419 344.906 10.1974 345.952 8.9541L346.602 8.18138H360.643H374.684V4.16332V0.14526L360.307 0.170875C352.4 0.185189 345.578 0.280869 345.147 0.383581ZM115.488 8.09675L116.084 8.25622L115.958 13.1786C115.821 18.5186 115.463 20.3315 114.069 22.7468C113.06 24.4957 111.027 26.4897 109.367 27.3578L107.86 28.1461L101.142 28.224L94.4244 28.3016V18.2833C94.4244 12.7733 94.4997 8.18967 94.5919 8.09775C94.8054 7.88404 114.69 7.88329 115.488 8.09675ZM324.144 8.08846C324.704 8.23864 324.709 8.28183 324.709 12.8441C324.709 15.3765 324.584 18.0472 324.43 18.7793C323.66 22.4447 321.171 25.8747 318.23 27.3239L316.561 28.1461L309.962 28.2207L303.364 28.295V18.28C303.364 12.7718 303.439 8.18967 303.531 8.09775C303.739 7.88932 323.368 7.88053 324.144 8.08846ZM71.8228 29.5273V36.3078H75.8409H79.8589V29.5273V22.7468H75.8409H71.8228V29.5273ZM172.946 28.4374C172.853 28.5303 172.777 30.3392 172.777 32.4572V36.3078H191.618H210.459L210.389 32.3525L210.32 28.3972L191.717 28.333C181.486 28.2975 173.038 28.3445 172.946 28.4374ZM341.202 28.4374C341.109 28.5303 341.033 30.3392 341.033 32.4572V36.3078H357.99H374.948L374.879 32.3525L374.81 28.3972L358.09 28.3327C348.895 28.2973 341.295 28.3443 341.202 28.4374Z" fill="#93AAC2" fill-opacity="0.1"/>
</svg>
