<svg width="608" height="132" viewBox="0 0 608 132" fill="none" xmlns="http://www.w3.org/2000/svg">
<path fill-rule="evenodd" clip-rule="evenodd" d="M149.742 6.38454V12.7703L172.125 13.1165L194.507 13.4626L194.932 16.4888C195.167 18.1533 194.599 19.998 193.671 20.59C192.744 21.1808 182.481 21.6727 170.864 21.6841L149.742 21.7031V39.4521V57.201H156.047H162.352V45.9127V34.6244L179.691 34.1857C195.193 33.794 197.445 33.4479 200.961 30.9275C209.161 25.0476 210.083 12.0591 202.82 4.75037L198.878 0.784757L174.31 0.393011L149.742 0V6.38454ZM219.097 28.6759V57.201H225.402H231.707V28.6759V0.150875H225.402H219.097V28.6759ZM249.888 1.37936C248.445 1.96634 245.749 4.25594 243.898 6.46695C237.947 13.5779 239.857 25.9958 247.72 31.3281C250.651 33.316 254.15 33.799 268.276 34.1616C277.639 34.4025 285.839 35.1201 286.497 35.7577C287.155 36.3954 290.135 36.9165 293.117 36.9165C298.052 36.9165 298.54 36.6325 298.54 33.7673C298.54 32.0343 296.885 28.7545 294.864 26.4776L291.187 22.337L273.112 21.9504C258.417 21.6372 254.749 21.1897 253.508 19.5568C252.444 18.1584 252.362 16.8336 253.237 15.1893C254.388 13.0252 256.329 12.8287 276.516 12.8287H298.54V6.48976V0.150875L275.526 0.230738C262.87 0.275111 251.332 0.792374 249.888 1.37936ZM195.138 46.4248V57.201H201.443H207.748V46.4248V35.6487H201.443H195.138V46.4248ZM246.443 45.3434C245.967 45.8214 245.578 48.6853 245.578 51.7077V57.201H272.759H299.939L299.555 51.179L299.17 45.1571L273.239 44.8148C258.977 44.6271 246.919 44.8642 246.443 45.3434ZM153.659 78.6277L149.742 82.3056V107.153V132H167.149C183.277 132 185.028 131.763 191.004 128.768C203.443 122.537 207.705 113.307 208.683 90.4802L209.349 74.9499H183.462H157.575L153.659 78.6277ZM218.082 80.9719L218.466 86.9938L241.149 87.6277C261.695 88.202 263.872 88.4758 264.266 90.541C265.291 95.9101 262.856 96.5022 239.749 96.5022H217.836V114.251V132H224.141H230.446V120.59V109.18L246.523 109.177C264.823 109.176 269.389 107.735 274.24 100.435C277.639 95.3193 277.873 90.2786 274.997 84.1831C271.016 75.7486 268.147 74.96 241.41 74.955L217.697 74.9499L218.082 80.9719ZM287.191 81.2888V87.6277H309.804C331.486 87.6277 332.45 87.7342 333.236 90.2241C335.014 95.8543 332.526 96.5022 309.104 96.5022H287.191V114.251V132H293.496H299.801V120.712V109.423L317.199 108.985C335.831 108.514 339.137 107.513 343.345 101.056C348.411 93.282 346.053 82.0558 338.362 77.3409C334.927 75.2352 331.743 74.9588 310.834 74.955L287.191 74.9499V81.2888ZM369.413 77.6477C366.433 79.131 362.461 82.3639 360.586 84.8335C357.238 89.2416 357.168 89.7068 356.777 110.662L356.379 132H362.086H367.792L368.159 121.541L368.525 111.082L377.325 110.7C393.084 110.017 395.636 111.85 395.636 123.849V132H402.071H408.505L408.061 121.541C407.306 103.774 401.094 98.5293 380.504 98.2682C369.514 98.13 368.556 97.9195 368.904 95.725C369.114 94.4091 370.706 92.0484 372.443 90.4802C375.158 88.0283 377.006 87.6277 385.619 87.6277H395.636V93.3327V99.0377H401.941H408.246V86.9938V74.9499L391.538 74.9512C377.039 74.9512 374.114 75.3087 369.413 77.6477ZM433.724 77.6477C422.19 83.387 418.334 93.088 418.334 116.354V132H447.968H477.601V125.661V119.322H454.273H430.944V109.477C430.944 97.5342 433.441 91.8596 440.186 88.4746C444.47 86.3244 444.815 85.7336 444.815 80.551C444.815 75.5876 444.492 74.9499 441.978 74.9512C440.417 74.9512 436.703 76.1657 433.724 77.6477ZM491.275 78.0686C485.358 82.1116 483.906 86.6541 483.906 101.128V112.983H503.452H522.997V106.644V100.306H509.687H496.377L496.762 94.2836L497.147 88.2616L520.16 87.9155L543.173 87.5707V81.2596V74.9499H519.507C496.443 74.9499 495.724 75.0298 491.275 78.0686ZM556.884 77.0848C545.058 84.4633 547.399 104.184 560.536 107.853C563.123 108.575 571.909 109.169 580.057 109.172C589.09 109.177 594.874 109.674 594.874 110.448C594.874 111.145 597.711 111.716 601.179 111.716C606.679 111.716 607.484 111.386 607.484 109.136C607.484 107.716 606.548 105.119 605.406 103.366C601.63 97.5747 597.638 96.5022 579.849 96.5022C564.558 96.5022 563.343 96.3234 562.045 93.8854C559.097 88.3465 561.802 87.6277 585.57 87.6277H607.484V81.2888V74.9499L583.84 74.9841C564.219 75.012 559.633 75.3695 556.884 77.0848ZM196.028 96.4654C194.546 114.224 189.368 119.309 172.755 119.317L162.352 119.322V103.475V87.6277H179.558H196.765L196.028 96.4654ZM264.493 121.224V132H270.798H277.103V121.224V110.448H270.798H264.493V121.224ZM333.847 121.224V132H340.152H346.457V121.224V110.448H340.152H333.847V121.224ZM483.906 125.661V132H513.54H543.173V125.661V119.322H513.54H483.906V125.661ZM555.363 120.168C554.9 120.632 554.522 123.484 554.522 126.507V132H581.003H607.484V125.661V119.322H581.844C567.741 119.322 555.825 119.703 555.363 120.168Z" fill="#00FFE9"/>
<path d="M49.3799 1.86381L49.38 1.86378C50.0981 1.7216 51.9093 1.57484 54.6147 1.43626C57.3024 1.29857 60.8329 1.17047 64.9584 1.05876C73.2087 0.835336 83.8299 0.677679 94.8299 0.639613L94.8285 0.239616L94.8299 0.639613L134.339 0.501748V25.3846V50.2692H120.977H107.615V39.9808V29.1923V28.6923H107.115H80.6109C65.966 28.6923 57.7985 28.8452 52.3399 29.9344C49.594 30.4823 47.5163 31.2695 45.6345 32.3994C43.7595 33.5251 42.0988 34.9795 40.1813 36.8299C30.3909 46.2765 27.2239 58.3832 27.2239 85.272V102.808V103.308H27.7239H81.2813H134.339V117.404V131.5H67.4194H0.500259L0.51891 95.5099C0.528996 74.9872 0.715795 63.4286 1.83744 55.1137C2.95438 46.8337 4.99772 41.7746 8.75932 34.2517L8.32251 34.0333L8.75932 34.2517C16.924 17.9222 33.0325 5.09647 49.3799 1.86381Z" stroke="#00FFE9"/>
</svg>
