<svg width="287" height="62" viewBox="0 0 287 62" fill="none" xmlns="http://www.w3.org/2000/svg">
<path fill-rule="evenodd" clip-rule="evenodd" d="M23.1901 0.715163C15.4191 2.24731 7.78221 8.31637 3.91126 16.0355C0.35875 23.1192 0.0183824 25.6333 0.00889483 44.8802L0 62H31.7242H63.4483V55.1521V48.3041H38.2469H13.0455V40.0771C13.0455 27.4697 14.5386 21.8788 19.0707 17.5188C22.6677 14.0579 24.1305 13.7667 37.9314 13.7667H50.4029V18.8282V23.8898H56.9256H63.4483V11.9803V0.0708609L44.6214 0.136363C34.2663 0.172092 24.6227 0.432313 23.1901 0.715163ZM71.75 2.9988V5.99819L82.2753 6.16076L92.8006 6.32332L93.0005 7.74472C93.1107 8.52657 92.8439 9.39298 92.4075 9.67107C91.9716 9.94856 87.1454 10.1796 81.6823 10.185L71.75 10.1939V18.5305V26.8671H74.7149H77.6798V21.565V16.2629L85.8332 16.0569C93.1232 15.8729 94.1822 15.7104 95.8355 14.5266C99.6916 11.7647 100.125 5.66413 96.7095 2.23124L94.8559 0.368597L83.3029 0.184596L71.75 0V2.9988ZM104.364 13.469V26.8671H107.329H110.293V13.469V0.0708609H107.329H104.364V13.469ZM118.843 0.647874C118.165 0.923577 116.897 1.999 116.026 3.0375C113.228 6.37751 114.126 12.2102 117.824 14.7147C119.202 15.6484 120.847 15.8753 127.49 16.0456C131.893 16.1587 135.749 16.4958 136.058 16.7953C136.368 17.0948 137.769 17.3396 139.171 17.3396C141.492 17.3396 141.721 17.2062 141.721 15.8604C141.721 15.0464 140.943 13.5059 139.993 12.4364L138.263 10.4916L129.764 10.31C122.854 10.1629 121.129 9.95273 120.545 9.18576C120.045 8.52895 120.006 7.90668 120.418 7.13435C120.959 6.11788 121.872 6.02559 131.365 6.02559H141.721V3.04822V0.0708609L130.899 0.108376C124.948 0.129217 119.522 0.37217 118.843 0.647874ZM93.0971 21.8056V26.8671H96.062H99.0269V21.8056V16.7441H96.062H93.0971V21.8056ZM117.223 21.2977C116.999 21.5222 116.816 22.8673 116.816 24.2869V26.8671H129.598H142.379L142.198 24.0386L142.018 21.2101L129.824 21.0494C123.117 20.9612 117.447 21.0726 117.223 21.2977ZM73.5918 36.9312L71.75 38.6587V50.3293V62H79.9354C87.5196 62 88.3432 61.8886 91.1533 60.4821C97.0024 57.5554 99.0067 53.2198 99.4668 42.4983L99.7799 35.2037H87.6067H75.4336L73.5918 36.9312ZM103.886 38.0322L104.067 40.8607L114.734 41.1585C124.395 41.4282 125.419 41.5568 125.604 42.5269C126.086 45.0487 124.941 45.3268 114.075 45.3268H103.771V53.6634V62H106.736H109.7V56.6407V51.2815L117.261 51.2803C125.866 51.2797 128.013 50.6026 130.294 47.1739C131.893 44.7712 132.003 42.4036 130.65 39.5406C128.778 35.5789 127.429 35.2085 114.856 35.2061L103.705 35.2037L103.886 38.0322ZM136.384 38.1811V41.1585H147.018C157.214 41.1585 157.667 41.2085 158.037 42.378C158.873 45.0225 157.703 45.3268 146.689 45.3268H136.384V53.6634V62H139.349H142.314V56.6979V51.3958L150.495 51.1898C159.257 50.9689 160.812 50.4984 162.791 47.4657C165.173 43.8143 164.064 38.5414 160.447 36.3268C158.832 35.3377 157.335 35.2079 147.503 35.2061L136.384 35.2037V38.1811ZM175.049 36.4709C173.647 37.1676 171.78 38.6861 170.898 39.846C169.323 41.9165 169.291 42.135 169.107 51.9776L168.92 62H171.603H174.287L174.459 57.0874L174.631 52.1747L178.77 51.9955C186.18 51.6745 187.38 52.5356 187.38 58.1717V62H190.406H193.431L193.223 57.0874C192.868 48.7424 189.947 46.2789 180.264 46.1563C175.096 46.0914 174.646 45.9925 174.81 44.9617C174.908 44.3436 175.657 43.2349 176.474 42.4983C177.75 41.3466 178.62 41.1585 182.67 41.1585H187.38V43.8381V46.5177H190.345H193.31V40.8607V35.2037L185.453 35.2043C178.635 35.2043 177.259 35.3723 175.049 36.4709ZM205.29 36.4709C199.867 39.1666 198.054 43.7232 198.054 54.6513V62H211.989H225.924V59.0226V56.0453H214.954H203.983V51.4208C203.983 45.8115 205.158 43.1461 208.329 41.5562C210.344 40.5463 210.506 40.2688 210.506 37.8345C210.506 35.5033 210.354 35.2037 209.172 35.2043C208.438 35.2043 206.692 35.7748 205.29 36.4709ZM232.354 36.6686C229.571 38.5676 228.888 40.7011 228.888 47.4996V53.0679H238.08H247.271V50.0905V47.1132H241.012H234.753L234.934 44.2847L235.115 41.4562L245.936 41.2936L256.758 41.1317V38.1674V35.2037H245.629C234.784 35.2037 234.446 35.2412 232.354 36.6686ZM263.206 36.2065C257.645 39.6722 258.745 48.9347 264.923 50.658C266.14 50.9975 270.271 51.2761 274.103 51.2779C278.35 51.2803 281.07 51.5137 281.07 51.877C281.07 52.2045 282.404 52.4724 284.035 52.4724C286.622 52.4724 287 52.3176 287 51.2607C287 50.5937 286.56 49.3742 286.023 48.5507C284.247 45.8305 282.37 45.3268 274.005 45.3268C266.815 45.3268 266.243 45.2428 265.633 44.0977C264.246 41.4961 265.518 41.1585 276.695 41.1585H287V38.1811V35.2037L275.882 35.2198C266.655 35.2329 264.498 35.4008 263.206 36.2065ZM93.5157 45.3095C92.819 53.6509 90.3837 56.0393 82.5718 56.0429L77.6798 56.0453V48.6019V41.1585H85.7709H93.862L93.5157 45.3095ZM125.711 56.9385V62H128.676H131.64V56.9385V51.877H128.676H125.711V56.9385ZM158.324 56.9385V62H161.289H164.254V56.9385V51.877H161.289H158.324V56.9385ZM228.888 59.0226V62H242.823H256.758V59.0226V56.0453H242.823H228.888V59.0226ZM262.491 56.4424C262.273 56.6604 262.095 58.0002 262.095 59.4198V62H274.548H287V59.0226V56.0453H274.943C268.311 56.0453 262.708 56.2239 262.491 56.4424Z" fill="#93AAC2" fill-opacity="0.2"/>
</svg>
