<svg width="133" height="29" viewBox="0 0 133 29" fill="none" xmlns="http://www.w3.org/2000/svg">
<path fill-rule="evenodd" clip-rule="evenodd" d="M108.061 0.117967C105.877 0.589499 103.837 2.35188 103.061 4.43878C102.66 5.51482 102.647 5.90653 102.647 17.2745V29H110.995C118.651 29 119.471 28.9671 120.882 28.6045C125.04 27.5357 128.517 24.551 130.585 20.2753C132.247 16.841 132.237 16.9148 132.324 7.99062L132.402 0.118367L127.65 0.117967C125.037 0.117967 119.757 0.0754461 115.916 0.0236998C111.921 -0.0300521 108.559 0.0102621 108.061 0.117967ZM0.290649 14.5592V29H3.48306H6.67547V14.5592V0.118367H3.48306H0.290649V14.5592ZM16.2974 3.26406L16.3525 6.43622L21.8394 6.53651C27.0337 6.63138 27.3796 6.66146 28.324 7.0989C29.6307 7.70421 31.0806 9.27705 31.6539 10.7107C32.1002 11.8271 32.1114 12.0357 32.1741 20.4258L32.2381 29H35.4189H38.5996L38.5926 20.7266C38.5844 10.9843 38.4978 10.2157 37.0852 7.35221C35.5831 4.30781 33.0637 2.06487 29.6692 0.749552C28.3448 0.236502 28.2306 0.227476 22.2832 0.160085L16.2425 0.0918919L16.2974 3.26406ZM43.7872 14.5592V29H46.9797H50.1721V14.5592V0.118367H46.9797H43.7872V14.5592ZM65.4358 0.493428C63.3352 1.10115 61.7733 2.0757 59.9269 3.93034C58.5045 5.35938 58.0495 5.98194 57.2812 7.55037C55.5746 11.0348 55.5116 11.4817 55.409 20.8269L55.3192 29H70.304H85.2886V25.7909V22.5819H73.4958H61.703L61.7868 17.8184C61.8625 13.5144 61.9139 12.9302 62.3216 11.7621C63.16 9.35929 64.4647 7.8077 66.3823 6.93283C67.1587 6.57843 67.7315 6.54493 73.0676 6.54092L78.9038 6.53651V8.94331V11.3501H82.0962H85.2886V5.73424V0.118367L75.9608 0.132608C67.7471 0.145243 66.4899 0.188366 65.4358 0.493428ZM90.4762 14.5592V29H93.6687H96.8611V14.5592V0.118367H93.6687H90.4762V14.5592ZM125.56 6.46691L126.026 6.59227L125.946 10.7261C125.876 14.3093 125.806 15.0389 125.425 16.2024C124.538 18.9105 122.412 21.2962 120.117 22.1593C119.082 22.5484 118.591 22.5819 113.913 22.5819H108.833V14.8468C108.833 9.89841 108.907 6.97214 109.039 6.72384C109.238 6.35018 109.538 6.33614 117.17 6.33875C121.528 6.34015 125.304 6.39792 125.56 6.46691ZM11.8631 19.3728V29H14.9558H18.0484V19.3728V9.74558H14.9558H11.8631V19.3728Z" fill="#93AAC2"/>
</svg>
