<svg width="256" height="29" viewBox="0 0 256 29" fill="none" xmlns="http://www.w3.org/2000/svg">
<path fill-rule="evenodd" clip-rule="evenodd" d="M41.401 0.190495C39.2252 0.691435 37.6134 2.0212 36.6246 4.13151L36.1041 5.24235L36.0481 17.1195L35.9919 28.9968L44.8522 28.9329C53.4836 28.8708 53.7485 28.8572 55.1129 28.4065C60.0466 26.7765 64.0028 22.3043 65.4487 16.7229C65.8437 15.198 65.8875 14.4245 65.9659 7.59582L66.0516 0.134813H61.1651C58.4777 0.134813 53.1802 0.090147 49.3929 0.0354664C44.2329 -0.0390436 42.23 -0.000185835 41.401 0.190495ZM231.089 0.190495C228.913 0.691435 227.301 2.0212 226.312 4.13151L225.792 5.24235L225.736 17.1213L225.68 29L234.64 28.9337L243.6 28.8674L245.068 28.3356C248.894 26.9494 252.184 23.8502 253.995 19.926C255.488 16.6928 255.565 16.1214 255.657 7.69597L255.739 0.134813H250.853C248.165 0.134813 242.868 0.090147 239.081 0.0354664C233.921 -0.0390436 231.918 -0.000185835 231.089 0.190495ZM11.3216 0.452081C9.26069 0.951418 7.46086 2.04383 5.55718 3.95064C4.05708 5.45306 3.68871 5.96742 2.82191 7.76808C1.18475 11.1697 1.14554 11.4573 1.04289 20.8153L0.953247 28.9774H15.9826H31.012L30.9567 25.8227L30.9017 22.6681L19.1279 22.6164L7.35401 22.5647L7.43725 17.8093C7.51128 13.5788 7.56951 12.9049 7.96349 11.7035C8.61399 9.72016 9.96862 8.02445 11.5602 7.20064L12.8283 6.54427H18.7073H24.5862L24.6424 8.89774L24.6988 11.2512H27.8003H30.9017L30.9549 5.69301L31.0082 0.134813L21.7507 0.151438C14.4917 0.164657 12.2403 0.229553 11.3216 0.452081ZM74.8669 3.27605L74.9221 6.44412L80.4246 6.54427C85.599 6.63841 85.9808 6.67106 86.8276 7.08987C88.2416 7.78951 89.1011 8.61432 89.8432 9.98435L90.5293 11.2512L90.5871 20.1143L90.6452 28.9774H93.9387H97.2324L97.229 21.4162C97.2252 13.0583 97.0707 10.8254 96.361 8.8685C95.0002 5.11556 91.8951 2.07267 88.0282 0.702651C86.8026 0.26841 86.3836 0.237965 80.7696 0.174872L74.8118 0.107973L74.8669 3.27605ZM100.234 3.34275V6.55088L105.586 6.4974L110.939 6.44412L110.994 3.28947L111.049 0.134813H105.641H100.234V3.34275ZM118.981 0.435457C115.596 1.36683 112.657 4.1954 111.636 7.50228C111.262 8.71427 111.239 9.38065 111.239 18.8835V28.9774H114.34H117.442V19.7001C117.442 9.36543 117.486 8.9394 118.687 7.83037C120.003 6.61437 119.856 6.65103 123.825 6.54427L127.546 6.44412L127.601 3.28947L127.657 0.134813L123.8 0.152639C121.274 0.164456 119.611 0.262001 118.981 0.435457ZM139.495 0.539209C135.185 1.66968 131.625 5.1408 130.553 9.25867C130.301 10.2313 130.248 12.0338 130.248 19.7057V28.9774H133.449H136.651V23.6695V18.3617H141.621C146.922 18.3617 147.822 18.4835 149.065 19.3694C150.263 20.2233 150.448 21.002 150.453 25.2218L150.457 28.9774H153.659H156.86V25.0814C156.86 20.7671 156.694 19.6294 155.808 17.864C155.028 16.3113 152.955 14.1693 151.458 13.3707C149.178 12.1543 147.82 11.9522 141.921 11.9522H136.651V11.3492C136.651 9.74239 138.383 7.69957 140.38 6.95147C141.355 6.58653 141.933 6.54427 145.957 6.54427H150.446L150.502 9.49863L150.557 12.453H153.659H156.76L156.813 6.2939L156.866 0.134813L148.909 0.14583C141.744 0.155844 140.808 0.194901 139.495 0.539209ZM172.109 0.446473C168.433 1.43693 165.415 4.0548 163.539 7.88124C162.007 11.0043 161.868 12.1131 161.865 21.2159L161.862 28.9774H176.874H191.886L191.831 25.8227L191.776 22.6681L180.021 22.6164L168.265 22.5647V18.1017C168.265 14.7918 168.342 13.3423 168.564 12.4916C169.223 9.95911 170.72 7.92851 172.576 7.04942C173.642 6.54487 173.65 6.54427 179.558 6.54427H185.473V8.95282V11.3616L188.625 11.3063L191.776 11.2512L191.829 5.69301L191.883 0.134813L182.525 0.148033C175.09 0.158449 172.95 0.219739 172.109 0.446473ZM194.723 3.28947L194.778 6.44412H200.18H205.583L205.638 3.28947L205.693 0.134813H200.18H194.667L194.723 3.28947ZM213.509 0.451481C210.205 1.34079 207.522 3.86512 206.224 7.30499C205.807 8.41062 205.791 8.77476 205.728 18.7122L205.662 28.9774H208.874H212.086V19.2945V9.6118L212.551 8.72889C212.807 8.24338 213.4 7.57579 213.868 7.2453L214.72 6.64442L218.455 6.54427L222.19 6.44412L222.245 3.28947L222.3 0.134813L218.444 0.148033C215.742 0.157247 214.264 0.248181 213.509 0.451481ZM59.1896 6.47677L59.6648 6.60396L59.5644 10.53C59.4555 14.789 59.1704 16.235 58.0597 18.1614C57.2555 19.5563 55.6352 21.1466 54.3125 21.839L53.112 22.4678L47.7595 22.5299L42.407 22.5917V14.6014C42.407 10.2067 42.4671 6.55088 42.5405 6.47757C42.7106 6.30712 58.5541 6.30652 59.1896 6.47677ZM248.853 6.47016C249.295 6.58894 249.303 6.64382 249.301 9.72236C249.3 11.4445 249.206 13.4314 249.092 14.1377C248.513 17.7059 246.644 20.5183 243.937 21.8909L242.8 22.4678L237.447 22.5271L232.095 22.5863V14.5988C232.095 10.2055 232.155 6.55088 232.228 6.47757C232.394 6.31133 248.234 6.30432 248.853 6.47016ZM70.3534 9.88259C70.2799 9.9559 70.2199 14.2823 70.2199 19.4968V28.9774H73.4214H76.6229V19.3632V9.749H73.5549C71.8673 9.749 70.4266 9.80909 70.3534 9.88259Z" fill="#93AAC2"/>
</svg>
