<svg width="297" height="30" viewBox="0 0 297 30" fill="none" xmlns="http://www.w3.org/2000/svg">
<path fill-rule="evenodd" clip-rule="evenodd" d="M73.8724 0.438835C71.7929 0.827906 69.9491 2.33107 68.9715 4.43418L68.448 5.5607L68.3924 17.4469L68.3365 29.3333L77.1346 29.2734L85.9325 29.2136L87.52 28.6476C92.4376 26.8947 96.1578 22.6083 97.5866 17.05C97.9788 15.524 98.0223 14.7499 98.1002 7.91597L98.1852 0.449259H93.3331C90.6645 0.449259 85.4042 0.407566 81.6434 0.356652C77.8829 0.305738 74.3858 0.34282 73.8724 0.438835ZM239.207 0.435227C237.137 0.8249 235.089 2.45174 234.186 4.42295C233.763 5.34582 233.756 5.54547 233.701 17.3371L233.645 29.3139H241.964C249.535 29.3139 250.418 29.279 251.784 28.9266C256.894 27.6081 260.978 23.39 262.699 17.652C263.115 16.2661 263.143 15.7471 263.213 8.31687L263.287 0.449259L258.356 0.448858C255.645 0.448858 250.431 0.407165 246.77 0.356451C243.11 0.305738 239.706 0.341217 239.207 0.435227ZM0 3.65644V6.86362H11.092H22.1837L22.6443 7.35812C22.9522 7.68886 23.1358 8.17756 23.1982 8.83302C23.2817 9.70818 23.2272 9.88598 22.6894 10.4931L22.0871 11.1733L11.0437 11.2284L0 11.2833V20.2987V29.3139H3.17901H6.35801V23.5009V17.6878L13.6598 17.6838C17.6759 17.6816 21.5874 17.5904 22.3524 17.4812C25.1996 17.0747 27.586 15.2606 28.8692 12.5281C29.4648 11.2593 29.5052 11.0334 29.5052 8.96833C29.5052 6.91012 29.4638 6.6766 28.8841 5.46048C28.1155 3.84827 27.0559 2.59927 25.7315 1.74436C23.7162 0.443846 23.7762 0.449259 11.289 0.449259H0V3.65644ZM33.5783 3.65644V6.86362H44.6702H55.762L56.2104 7.34509C56.7691 7.94524 56.9628 9.25076 56.6175 10.0916C56.1321 11.2737 56.1343 11.2735 44.3138 11.2735H33.5783V20.2937V29.3139H36.7573H39.9363V23.5009V17.6878L47.2381 17.6838C51.2539 17.6816 55.1657 17.5904 55.9306 17.4812C58.7778 17.0747 61.1643 15.2606 62.4474 12.5281C63.0431 11.2593 63.0834 11.0334 63.0834 8.96833C63.0834 6.91253 63.0413 6.67359 62.4599 5.43582C61.4063 3.1922 59.6855 1.60164 57.4858 0.83813C56.4276 0.470908 55.731 0.449259 44.9716 0.449259H33.5783V3.65644ZM102.523 5.12332C102.523 8.83804 102.589 10.0211 102.843 10.8862C103.796 14.1263 106.053 16.52 109.278 17.7117C110.515 18.1687 110.789 18.189 115.736 18.189H120.902L120.956 15.0319L121.011 11.8748L116.585 11.8736C111.86 11.8724 111.029 11.7536 110.072 10.9411C108.861 9.91304 108.791 9.59493 108.716 4.80902L108.649 0.449259H105.586H102.523V5.12332ZM125.769 7.42287C125.769 13.0086 125.709 14.6342 125.467 15.5912C124.713 18.5718 122.914 21.0143 120.642 22.143L119.321 22.7993L110.922 22.8556L102.523 22.9119V26.1129V29.3139H110.836C118.46 29.3139 119.276 29.281 120.681 28.9186C125.394 27.7025 129.416 23.7945 131.154 18.741C132.045 16.1524 132.127 15.2127 132.127 7.65238V0.449259H128.948H125.769V7.42287ZM142.755 0.809867C140.369 1.64193 138.506 3.32409 137.429 5.61622L136.797 6.96384L136.737 13.4283L136.677 19.8928H146.622H156.566V16.6856V13.4784H149.691H142.817L142.889 10.9227C142.964 8.26816 143.178 7.54594 144.011 7.13102C144.196 7.03901 149.309 6.91874 155.374 6.86362L166.401 6.76339L166.456 3.60633L166.511 0.449259L155.131 0.455873C144.86 0.461686 143.654 0.496164 142.755 0.809867ZM180.44 0.742515C176.737 1.64634 173.146 4.96176 171.457 9.03508C170.378 11.6393 170.276 12.7101 170.276 21.3877V29.3139H185.078H199.88V26.1067V22.8995H188.132H176.385L176.484 18.2391C176.569 14.2405 176.642 13.3936 176.999 12.2757C177.743 9.9403 179.128 8.19119 180.905 7.34209C181.879 6.87685 182.012 6.86743 187.704 6.86562L193.51 6.86362L193.565 9.21889L193.621 11.5742L196.751 11.6293L199.88 11.6846V6.06683V0.449259L190.691 0.466297C183.907 0.478925 181.223 0.551286 180.44 0.742515ZM202.86 3.65644V6.86362H208.225H213.59V3.65644V0.449259H208.225H202.86V3.65644ZM221.604 0.734496C218.091 1.59402 215.039 4.70759 214.084 8.40767C213.841 9.34758 213.788 11.3304 213.788 19.4338V29.3139H216.967H220.146V19.5821C220.146 9.07637 220.125 9.30428 221.213 8.09698C222.192 7.00954 222.829 6.86362 226.596 6.86362H230.081V3.65644V0.449259L226.355 0.466297C224.109 0.476519 222.222 0.583158 221.604 0.734496ZM273.073 0.639484C271.289 1.06925 269.323 2.53673 268.23 4.25498C265.205 9.01102 267.276 15.1442 272.606 17.2186C273.375 17.5177 274.584 17.5788 281.64 17.676L289.786 17.7881L290.084 18.4351L290.382 19.0824L293.537 19.0866L296.692 19.091L296.558 18.0386C296.242 15.5649 294.506 13.1719 292.158 11.9751L290.978 11.3737L282.733 11.2735C278.198 11.2184 274.328 11.0947 274.132 10.9987C273.126 10.5038 272.883 8.47282 273.71 7.4804L274.225 6.86362H285.334H296.442V3.65644V0.449259L285.067 0.469704C278.811 0.481129 273.414 0.5575 273.073 0.639484ZM91.3714 6.79607L91.8433 6.92335L91.7435 10.8523C91.6355 15.1147 91.3523 16.5617 90.2494 18.4896C89.4509 19.8856 87.8419 21.4771 86.5286 22.1701L85.3365 22.7993L80.0216 22.8614L74.7067 22.9234V14.9269C74.7067 10.5288 74.7663 6.87023 74.8392 6.79687C75.0081 6.62629 90.7404 6.62568 91.3714 6.79607ZM256.456 6.78945C256.899 6.90932 256.903 6.9438 256.903 10.5853C256.903 12.6067 256.804 14.7384 256.682 15.3228C256.073 18.2485 254.104 20.9862 251.777 22.143L250.456 22.7993L245.236 22.8588L240.015 22.9182V14.9243C240.015 10.5276 240.075 6.87023 240.148 6.79687C240.312 6.63049 255.842 6.62348 256.456 6.78945ZM56.8247 23.9018V29.3139H60.0037H63.1828V23.9018V18.4896H60.0037H56.8247V23.9018ZM136.831 23.0318C136.757 23.106 136.697 24.5498 136.697 26.2404V29.3139H151.604H166.511L166.456 26.1568L166.401 22.9997L151.683 22.9484C143.588 22.9202 136.905 22.9576 136.831 23.0318ZM269.952 23.0318C269.878 23.106 269.818 24.5498 269.818 26.2404V29.3139H283.235H296.651L296.596 26.1568L296.542 22.9997L283.314 22.9482C276.038 22.92 270.026 22.9574 269.952 23.0318Z" fill="#93AAC2"/>
</svg>
