<svg width="291" height="30" viewBox="0 0 291 30" fill="none" xmlns="http://www.w3.org/2000/svg">
<path fill-rule="evenodd" clip-rule="evenodd" d="M9.8819 1.07269C7.65462 1.66338 5.93452 2.6301 4.17189 4.28188C2.8563 5.51497 2.41988 6.094 1.66935 7.60152C1.10164 8.74207 0.683013 9.91883 0.554788 10.7355C0.440673 11.4612 0.348646 15.9606 0.347828 20.8453L0.346191 29.6474H3.61829H6.89038V24.3013V18.9555L12.4632 19.0201C18.4585 19.0897 18.6734 19.1255 19.9471 20.2653C20.9267 21.1418 21.0013 21.5277 21.0013 25.7141V29.6474H24.3757H27.75L27.7459 26.2774C27.7437 24.4239 27.6498 22.2737 27.5373 21.4992C26.9377 17.3744 23.5427 13.8765 19.1499 12.8578C18.1448 12.6248 16.5316 12.5514 12.3609 12.5492C7.97079 12.5468 6.89038 12.4939 6.89038 12.281C6.89038 12.1349 7.02986 11.5533 7.20062 10.9882C7.57834 9.73676 8.80886 8.42117 10.2647 7.71238C11.2527 7.23153 11.4513 7.21262 16.1388 7.15427L20.9903 7.09372L21.0469 10.0715L21.1036 13.0492H24.3757H27.6477L27.7017 6.86255L27.7559 0.675941L19.5215 0.688012C12.1732 0.698877 11.1361 0.740322 9.8819 1.07269ZM42.9857 1.05217C40.8327 1.66178 39.2318 2.63936 37.3393 4.49977C35.8814 5.93325 35.4151 6.55775 34.6275 8.13106C32.8784 11.6263 32.8138 12.0746 32.7087 21.4489L32.6166 29.6474H47.9754H63.3341V26.4283V23.2093H51.2469H39.1598L39.2457 18.431C39.3232 14.1137 39.376 13.5276 39.7938 12.3559C40.6531 9.94559 41.9904 8.38918 43.9559 7.51159C44.7516 7.15609 45.3387 7.12249 50.8081 7.11846L56.7899 7.11404V9.52832V11.9426H60.062H63.3341V6.30928V0.675941L53.7734 0.690226C45.3547 0.702901 44.0661 0.746157 42.9857 1.05217ZM74.4796 0.95801C71.4889 1.89093 69.1142 4.31306 68.353 7.20658C68.1037 8.15439 68.0377 9.64099 68.0377 14.2986V20.1914H78.263H88.4883V16.9724V13.7533H81.5193H74.5502L74.6173 11.0202L74.6841 8.28718L75.3521 7.70051L76.02 7.11404H87.3668H98.7136V3.89499V0.675941L87.0056 0.689421C78.1472 0.699682 75.0985 0.764868 74.4796 0.95801ZM103.054 3.84006L103.11 7.01344L114.632 7.11404L126.154 7.21463L126.538 7.6816C127.43 8.76501 127.092 10.7071 125.913 11.2841C125.524 11.4742 122.707 11.535 114.172 11.5372L102.943 11.5402L103.077 16.2179C103.151 18.7905 103.212 22.8646 103.212 25.2715L103.213 29.6474H106.485H109.757V23.8128V17.9783L117.273 17.9743C125.481 17.9701 127.084 17.8387 128.776 17.0317C130.226 16.3402 132.023 14.5655 132.741 13.117C134.891 8.77808 133.028 3.47269 128.636 1.42598L127.242 0.776537L115.12 0.721611L102.998 0.666687L103.054 3.84006ZM148.715 1.05679C143.4 2.58282 139.444 7.41904 138.607 13.4157C138.484 14.299 138.388 18.2059 138.388 22.3184V29.6474H153.726H169.064V26.4283V23.2093H156.979H144.895L144.98 18.3304C145.057 13.9426 145.11 13.3316 145.511 12.2607C146.402 9.8786 147.615 8.46926 149.533 7.58784C150.531 7.12933 150.7 7.11786 156.538 7.11605L162.519 7.11404V9.53335V11.9529L165.74 11.8973L168.961 11.842L169.016 6.25898L169.07 0.675941L159.506 0.690226C151.027 0.702901 149.803 0.744547 148.715 1.05679ZM184.299 0.808728C183.323 1.01394 180.92 1.91407 180.006 2.41664C177.596 3.74208 175.272 6.57324 174.334 9.32713C173.906 10.5828 173.885 11.0141 173.814 20.1411L173.739 29.6474H177.025H180.312V24.3013V18.9555L185.884 19.0201C191.88 19.0897 192.095 19.1255 193.368 20.2653C194.416 21.2028 194.513 21.64 194.591 25.7745L194.665 29.6474H197.94H201.216L201.121 25.2715C201.038 21.4438 200.971 20.7463 200.587 19.7047C199.334 16.3131 196.302 13.7229 192.571 12.8578C191.566 12.6246 189.952 12.5514 185.773 12.5492L180.293 12.5462L180.432 11.7917C180.744 10.1033 181.875 8.69741 183.686 7.7498C184.7 7.21886 184.748 7.21403 189.668 7.15146L194.627 7.08808V10.124V13.16L197.848 13.1045L201.069 13.0492L201.123 6.86255L201.177 0.675941L192.943 0.699279C188.414 0.712155 184.524 0.761247 184.299 0.808728ZM224.485 9.9307V19.1855H227.757H231.029V13.1498V7.11404H239.847H248.665L248.563 10.987C248.455 15.1104 248.251 16.2565 247.267 18.3047C246.539 19.8176 244.809 21.5943 243.257 22.4222L241.97 23.1087L233.279 23.2093L224.587 23.3099L224.531 26.4883L224.474 29.6667L233.631 29.6013L242.788 29.5359L244.281 28.9967C249.261 27.1979 252.983 23.0254 254.566 17.4693C254.992 15.9708 255.028 15.3685 255.11 8.27088L255.198 0.675941H239.841H224.485V9.9307ZM265.895 1.03788C263.44 1.87303 261.521 3.56142 260.413 5.86203L259.762 7.21463L259.701 13.703L259.639 20.1914H269.875H280.11V16.9724V13.7533H273.031H265.951L266.035 11.1881C266.122 8.52901 266.346 7.79104 267.188 7.38243C267.378 7.29008 272.641 7.16936 278.883 7.11404L290.234 7.01344L290.29 3.84469L290.346 0.675941L278.633 0.68258C268.062 0.688415 266.82 0.723021 265.895 1.03788ZM127.14 24.2152V29.6474H130.412H133.684V24.2152V18.7831H130.412H127.14V24.2152ZM68.1741 23.3435C68.099 23.4171 68.0377 24.8657 68.0377 26.5625V29.6474H83.3756H98.7136V26.4283V23.2093H83.512C75.151 23.2093 68.2489 23.2696 68.1741 23.3435ZM259.66 26.4271V29.6474H275.003H290.346L290.29 26.4786L290.234 23.3099L274.947 23.2584L259.66 23.2067V26.4271Z" fill="#93AAC2"/>
</svg>
